<?xml version="1.0" encoding="UTF-8"?>
<svg xmlns="http://www.w3.org/2000/svg" xmlns:xlink="http://www.w3.org/1999/xlink" width="402.12" height="628.32" viewBox="-28.56 -599.76 402.12 628.32">
<defs>
<style type="text/css">
.l65d44 {stroke: #2B3D26; fill: #2B3D26; fill-opacity: 0.5;}
.l235d4 {stroke: #0067A5; fill: #0067A5; fill-opacity: 0.5;}
.l67d44 {stroke: #875692; fill: #875692; fill-opacity: 0.5;}
.l69d44 {stroke: #A1CAF1; fill: #A1CAF1; fill-opacity: 0.5;}
.l122d16 {stroke: #F6A600; fill: #F6A600; fill-opacity: 0.5;}
.l93d44 {stroke: #008856; fill: #008856; fill-opacity: 0.5;}
.l78d44 {stroke: #F6A600; fill: #F6A600; fill-opacity: 0.5;}
.l236d0 {stroke: #E25822; fill: #E25822; fill-opacity: 0.5;}
.l66d44 {stroke: #F3C300; fill: #F3C300; fill-opacity: 0.5;}
.l68d44 {stroke: #F38400; fill: #F38400; fill-opacity: 0.5;}
.l95d20 {stroke: #654522; fill: #654522; fill-opacity: 0.5;}
.l70d44 {stroke: #BE0032; fill: #BE0032; fill-opacity: 0.5;}
.l94d20 {stroke: #8DB600; fill: #8DB600; fill-opacity: 0.5;}
.l68d16 {stroke: #E25822; fill: #E25822; fill-opacity: 0.5;}
.l67d20 {stroke: #0067A5; fill: #0067A5; fill-opacity: 0.5;}
.l71d16 {stroke: #875692; fill: #875692; fill-opacity: 0.5;}
.l69d20 {stroke: #604E97; fill: #604E97; fill-opacity: 0.5;}
.l68d20 {stroke: #F99379; fill: #F99379; fill-opacity: 0.5;}
.l71d20 {stroke: #B3446C; fill: #B3446C; fill-opacity: 0.5;}
.l70d20 {stroke: #F6A600; fill: #F6A600; fill-opacity: 0.5;}
.l70d16 {stroke: #F3C300; fill: #F3C300; fill-opacity: 0.5;}
.l64d20 {stroke: #848482; fill: #848482; fill-opacity: 0.5;}
.l81d4 {stroke: #882D17; fill: #882D17; fill-opacity: 0.5;}
.l64d16 {stroke: #DCD300; fill: #DCD300; fill-opacity: 0.5;}
.l65d20 {stroke: #008856; fill: #008856; fill-opacity: 0.5;}
.l66d20 {stroke: #E68FAC; fill: #E68FAC; fill-opacity: 0.5;}
.l67d16 {stroke: #654522; fill: #654522; fill-opacity: 0.5;}
.l64t59 {stroke: none; fill: #B3446C;}
.l64t5 {stroke: none; fill: #604E97;}
.l67t5 {stroke: none; fill: #DCD300;}
.l68t5 {stroke: none; fill: #882D17;}
.l69t5 {stroke: none; fill: #8DB600;}
.l70t5 {stroke: none; fill: #654522;}
.l71t5 {stroke: none; fill: #E25822;}
.l83t44 {stroke: none; fill: #654522;}
</style>
<g id="sky130_fd_sc_hd__tapvpwrvgnd_1">
<polygon id="0x5d4a4ee5c7f0" class="l68d16" points="1.05,-0.9 3.6,-0.9 3.6,1 1.05,1"/>
<polygon id="0x5d4a4f5bb1a0" class="l68d16" points="1.1,26.2 3.75,26.2 3.75,27.65 1.1,27.65"/>
<polygon id="0x5d4a4e9ca240" class="l94d20" points="0,1.9 4.6,1.9 4.6,9.75 0,9.75"/>
<polygon id="0x5d4a4f3e8cb0" class="l94d20" points="0,25.3 4.6,25.3 4.6,29.1 0,29.1"/>
<polygon id="0x5d4a4f091500" class="l93d44" points="0,-1.9 4.6,-1.9 4.6,1.9 0,1.9"/>
<polygon id="0x5d4a4f020f90" class="l93d44" points="0,13.95 4.6,13.95 4.6,25.3 0,25.3"/>
<polygon id="0x5d4a4efe7b40" class="l64d20" points="-1.9,13.05 6.5,13.05 6.5,29.1 -1.9,29.1"/>
<polygon id="0x5d4a4f7963a0" class="l66d44" points="1.45,5.55 3.15,5.55 3.15,7.25 1.45,7.25"/>
<polygon id="0x5d4a4e4d1480" class="l66d44" points="1.45,16.45 3.15,16.45 3.15,18.15 1.45,18.15"/>
<polygon id="0x5d4a4f6ca520" class="l66d44" points="1.45,21.1 3.15,21.1 3.15,22.8 1.45,22.8"/>
<polygon id="0x5d4a4df906b0" class="l65d44" points="1.45,3.2 3.15,3.2 3.15,8.45 1.45,8.45"/>
<polygon id="0x5d4a4f674ca0" class="l65d44" points="1.45,15.25 3.15,15.25 3.15,24 1.45,24"/>
<polygon id="0x5d4a4f674d10" class="l68d20" points="0,-2.4 4.6,-2.4 4.6,2.4 0,2.4"/>
<polygon id="0x5d4a4efe6ad0" class="l68d20" points="0,24.8 4.6,24.8 4.6,29.6 0,29.6"/>
<polygon id="0x5d4a4f522000" class="l67d44" points="1.45,-0.85 3.15,-0.85 3.15,0.85 1.45,0.85"/>
<polygon id="0x5d4a4efb2e90" class="l67d44" points="1.45,26.35 3.15,26.35 3.15,28.05 1.45,28.05"/>
<polygon id="0x5d4a4efb2f00" class="l67d20" points="0.85,0 3.75,0 3.75,8.1 0.85,8.1"/>
<polygon id="0x5d4a4f0166a0" class="l67d20" points="0.85,14.7 3.75,14.7 3.75,27.2 0.85,27.2"/>
<polygon id="0x5d4a4f5dae10" class="l67d20" points="0,26.35 4.6,26.35 4.6,28.05 0,28.05"/>
<polygon id="0x5d4a4f5dae80" class="l67d20" points="0,-0.85 4.6,-0.85 4.6,0.85 0,0.85"/>
<polygon id="0x5d4a4f6a0390" class="l78d44" points="0,12.5 4.6,12.5 4.6,27.2 0,27.2"/>
<polygon id="0x5d4a4f416720" class="l81d4" points="0,0 4.6,0 4.6,27.2 0,27.2"/>
<text id="0x5d4a4f680670" class="l68t5" text-anchor="middle" dominant-baseline="central" transform="translate(2.3 27.2) scale(0.1) scale(1 -1)">VPWR</text>
<text id="0x5d4a4f680700" class="l68t5" text-anchor="middle" dominant-baseline="central" transform="translate(2.3 0) scale(0.1) scale(1 -1)">VGND</text>
<text id="0x5d4a4f2cb420" class="l83t44" text-anchor="start" dominant-baseline="text-before-edge" transform="translate(0 0) rotate(90) scale(0.1) scale(1 -1)">tapvpwrvgnd_1</text>
</g>
<g id="sky130_fd_sc_hd__decap_8">
<polygon id="0x5d4a4f6c5220" class="l236d0" points="0,0 36.8,0 36.8,27.2 0,27.2"/>
<polygon id="0x5d4a4f019e60" class="l68d16" points="1.45,26.35 3.15,26.35 3.15,28.05 1.45,28.05"/>
<polygon id="0x5d4a4f019f30" class="l68d16" points="1.45,-0.85 3.15,-0.85 3.15,0.85 1.45,0.85"/>
<polygon id="0x5d4a4f69fdd0" class="l64d16" points="1.45,26.35 3.15,26.35 3.15,28.05 1.45,28.05"/>
<polygon id="0x5d4a4efe7370" class="l122d16" points="1.45,-0.85 3.15,-0.85 3.15,0.85 1.45,0.85"/>
<polygon id="0x5d4a4efe7440" class="l67d20" points="36.8,0.85 35.95,0.85 35.95,8.55 17.35,8.55 17.35,13.75 0.85,13.75 0.85,0.85 0,0.85 0,-0.85 36.8,-0.85"/>
<polygon id="0x5d4a4efe7130" class="l67d20" points="36.8,28.05 0,28.05 0,26.35 0.85,26.35 0.85,15.45 19.05,15.45 19.05,10.25 35.95,10.25 35.95,26.35 36.8,26.35"/>
<polygon id="0x5d4a4f021ea0" class="l81d4" points="0,0 36.8,0 36.8,27.2 0,27.2"/>
<polygon id="0x5d4a4f021880" class="l65d20" points="1.35,16.15 35.45,16.15 35.45,24.85 1.35,24.85"/>
<polygon id="0x5d4a4f0218f0" class="l65d20" points="1.35,2.35 35.45,2.35 35.45,7.85 1.35,7.85"/>
<polygon id="0x5d4a4efe7660" class="l78d44" points="0,12.5 36.8,12.5 36.8,27.2 0,27.2"/>
<polygon id="0x5d4a4efe7730" class="l93d44" points="0,-1.9 36.8,-1.9 36.8,10.15 0,10.15"/>
<polygon id="0x5d4a4efb6760" class="l64d20" points="-1.9,13.05 38.7,13.05 38.7,29.1 -1.9,29.1"/>
<polygon id="0x5d4a4f090a00" class="l94d20" points="0,14.85 36.8,14.85 36.8,29.1 0,29.1"/>
<polygon id="0x5d4a4f090ad0" class="l67d44" points="1.45,26.35 3.15,26.35 3.15,28.05 1.45,28.05"/>
<polygon id="0x5d4a4efb62e0" class="l67d44" points="1.45,-0.85 3.15,-0.85 3.15,0.85 1.45,0.85"/>
<polygon id="0x5d4a4f6c33e0" class="l67d44" points="6.05,26.35 7.75,26.35 7.75,28.05 6.05,28.05"/>
<polygon id="0x5d4a4f6c3450" class="l67d44" points="6.05,-0.85 7.75,-0.85 7.75,0.85 6.05,0.85"/>
<polygon id="0x5d4a4efe8550" class="l67d44" points="10.65,26.35 12.35,26.35 12.35,28.05 10.65,28.05"/>
<polygon id="0x5d4a4efe8620" class="l67d44" points="10.65,-0.85 12.35,-0.85 12.35,0.85 10.65,0.85"/>
<polygon id="0x5d4a4efe7840" class="l67d44" points="15.25,26.35 16.95,26.35 16.95,28.05 15.25,28.05"/>
<polygon id="0x5d4a4f020640" class="l67d44" points="15.25,-0.85 16.95,-0.85 16.95,0.85 15.25,0.85"/>
<polygon id="0x5d4a4f020710" class="l67d44" points="19.85,26.35 21.55,26.35 21.55,28.05 19.85,28.05"/>
<polygon id="0x5d4a4f6c5060" class="l67d44" points="19.85,-0.85 21.55,-0.85 21.55,0.85 19.85,0.85"/>
<polygon id="0x5d4a4f6c52f0" class="l67d44" points="24.45,26.35 26.15,26.35 26.15,28.05 24.45,28.05"/>
<polygon id="0x5d4a4f6c53c0" class="l67d44" points="24.45,-0.85 26.15,-0.85 26.15,0.85 24.45,0.85"/>
<polygon id="0x5d4a4f019a40" class="l67d44" points="29.05,26.35 30.75,26.35 30.75,28.05 29.05,28.05"/>
<polygon id="0x5d4a4efe8250" class="l67d44" points="29.05,-0.85 30.75,-0.85 30.75,0.85 29.05,0.85"/>
<polygon id="0x5d4a4efe8320" class="l67d44" points="33.65,26.35 35.35,26.35 35.35,28.05 33.65,28.05"/>
<polygon id="0x5d4a4f69fc50" class="l67d44" points="33.65,-0.85 35.35,-0.85 35.35,0.85 33.65,0.85"/>
<polygon id="0x5d4a4f69fee0" class="l66d20" points="32.85,26.15 3.95,26.15 3.95,11.25 17.15,11.25 17.15,14.85 32.85,14.85"/>
<polygon id="0x5d4a4f0204c0" class="l66d20" points="32.85,12.75 19.25,12.75 19.25,9.15 3.95,9.15 3.95,1.05 32.85,1.05"/>
<polygon id="0x5d4a4efe74e0" class="l66d44" points="1.75,22.55 3.45,22.55 3.45,24.25 1.75,24.25"/>
<polygon id="0x5d4a4efe7550" class="l66d44" points="1.75,17.45 3.45,17.45 3.45,19.15 1.75,19.15"/>
<polygon id="0x5d4a4efe75c0" class="l66d44" points="1.75,3.9 3.45,3.9 3.45,5.6 1.75,5.6"/>
<polygon id="0x5d4a4f08e0a0" class="l66d44" points="4.75,12.05 6.45,12.05 6.45,13.75 4.75,13.75"/>
<polygon id="0x5d4a4f021220" class="l66d44" points="9.7,12.05 11.4,12.05 11.4,13.75 9.7,13.75"/>
<polygon id="0x5d4a4f0212f0" class="l66d44" points="14.65,12.05 16.35,12.05 16.35,13.75 14.65,13.75"/>
<polygon id="0x5d4a4efe1ac0" class="l66d44" points="33.35,3.9 35.05,3.9 35.05,5.6 33.35,5.6"/>
<polygon id="0x5d4a4f0912f0" class="l66d44" points="20.05,10.25 21.75,10.25 21.75,11.95 20.05,11.95"/>
<polygon id="0x5d4a4f0913c0" class="l66d44" points="25.2,10.25 26.9,10.25 26.9,11.95 25.2,11.95"/>
<polygon id="0x5d4a4efe64e0" class="l66d44" points="30.35,10.25 32.05,10.25 32.05,11.95 30.35,11.95"/>
<polygon id="0x5d4a4efe3680" class="l66d44" points="33.35,22.55 35.05,22.55 35.05,24.25 33.35,24.25"/>
<polygon id="0x5d4a4efe3750" class="l66d44" points="33.35,17.45 35.05,17.45 35.05,19.15 33.35,19.15"/>
<polygon id="0x5d4a4f0219f0" class="l95d20" points="36.8,13.45 17.35,13.45 17.35,14.75 0,14.75 0,9.75 19.05,9.75 19.05,9.25 36.8,9.25"/>
<polygon id="0x5d4a4efde5b0" class="l68d20" points="0,29.6 0,24.8 36.8,24.8 36.8,29.6"/>
<polygon id="0x5d4a4efde5b0" class="l68d20" points="0,2.4 0,-2.4 36.8,-2.4 36.8,2.4"/>
<text id="0x5d4a4efb5460" class="l68t5" text-anchor="middle" dominant-baseline="central" transform="translate(2.3 27.2) scale(0.1) scale(1 -1)">VPWR</text>
<text id="0x5d4a4efe6bf0" class="l68t5" text-anchor="middle" dominant-baseline="central" transform="translate(2.3 0) scale(0.1) scale(1 -1)">VGND</text>
<text id="0x5d4a4efe8460" class="l64t5" text-anchor="middle" dominant-baseline="central" transform="translate(2.3 27.2) scale(0.1) scale(1 -1)">VPB</text>
<text id="0x5d4a4f021e10" class="l64t59" text-anchor="middle" dominant-baseline="central" transform="translate(2.3 0) scale(0.1) scale(1 -1)">VNB</text>
<text id="0x5d4a4f01efc0" class="l83t44" text-anchor="start" dominant-baseline="text-before-edge" transform="translate(0 0) rotate(90) scale(0.1) scale(1 -1)">decap_8</text>
</g>
<g id="sky130_fd_sc_hd__xor2_1">
<polygon id="0x5d4a4f021a60" class="l236d0" points="0,0 32.2,0 32.2,27.2 0,27.2"/>
<polygon id="0x5d4a4f08b470" class="l122d16" points="1.45,-0.85 3.15,-0.85 3.15,0.85 1.45,0.85"/>
<polygon id="0x5d4a4f4aa300" class="l64d16" points="1.45,26.35 3.15,26.35 3.15,28.05 1.45,28.05"/>
<polygon id="0x5d4a4f4aa3d0" class="l68d16" points="1.45,26.35 3.15,26.35 3.15,28.05 1.45,28.05"/>
<polygon id="0x5d4a4f69f940" class="l68d16" points="1.45,-0.85 3.15,-0.85 3.15,0.85 1.45,0.85"/>
<polygon id="0x5d4a4f2d1650" class="l78d44" points="0,12.5 32.2,12.5 32.2,27.2 0,27.2"/>
<polygon id="0x5d4a4efe3f90" class="l93d44" points="0,-1.9 32.2,-1.9 32.2,10.15 0,10.15"/>
<polygon id="0x5d4a4efe4060" class="l64d20" points="-1.9,13.05 34.1,13.05 34.1,29.1 -1.9,29.1"/>
<polygon id="0x5d4a4efe50f0" class="l94d20" points="0,13.55 32.2,13.55 32.2,29.1 0,29.1"/>
<polygon id="0x5d4a4efb59f0" class="l81d4" points="0,0 32.2,0 32.2,27.2 0,27.2"/>
<polygon id="0x5d4a4f08d1d0" class="l67d44" points="1.45,26.35 3.15,26.35 3.15,28.05 1.45,28.05"/>
<polygon id="0x5d4a4f08d2a0" class="l67d44" points="1.45,-0.85 3.15,-0.85 3.15,0.85 1.45,0.85"/>
<polygon id="0x5d4a4f092550" class="l67d44" points="6.05,26.35 7.75,26.35 7.75,28.05 6.05,28.05"/>
<polygon id="0x5d4a4f842db0" class="l67d44" points="6.05,-0.85 7.75,-0.85 7.75,0.85 6.05,0.85"/>
<polygon id="0x5d4a4f842e20" class="l67d44" points="29.05,-0.85 30.75,-0.85 30.75,0.85 29.05,0.85"/>
<polygon id="0x5d4a4f01b150" class="l67d44" points="29.05,26.35 30.75,26.35 30.75,28.05 29.05,28.05"/>
<polygon id="0x5d4a4f01b220" class="l67d44" points="24.45,-0.85 26.15,-0.85 26.15,0.85 24.45,0.85"/>
<polygon id="0x5d4a4efb4b30" class="l67d44" points="24.45,26.35 26.15,26.35 26.15,28.05 24.45,28.05"/>
<polygon id="0x5d4a4f840b20" class="l67d44" points="19.85,-0.85 21.55,-0.85 21.55,0.85 19.85,0.85"/>
<polygon id="0x5d4a4f840bf0" class="l67d44" points="19.85,26.35 21.55,26.35 21.55,28.05 19.85,28.05"/>
<polygon id="0x5d4a4efb60b0" class="l67d44" points="15.25,-0.85 16.95,-0.85 16.95,0.85 15.25,0.85"/>
<polygon id="0x5d4a4efb6180" class="l67d44" points="15.25,26.35 16.95,26.35 16.95,28.05 15.25,28.05"/>
<polygon id="0x5d4a4f092920" class="l67d44" points="10.65,-0.85 12.35,-0.85 12.35,0.85 10.65,0.85"/>
<polygon id="0x5d4a4f0929f0" class="l67d44" points="10.65,26.35 12.35,26.35 12.35,28.05 10.65,28.05"/>
<polygon id="0x5d4a4f6740c0" class="l67d16" points="10.65,11.05 12.35,11.05 12.35,12.75 10.65,12.75"/>
<polygon id="0x5d4a4f674190" class="l67d16" points="29.05,14.45 30.75,14.45 30.75,16.15 29.05,16.15"/>
<polygon id="0x5d4a4efe5610" class="l67d16" points="6.05,14.45 7.75,14.45 7.75,16.15 6.05,16.15"/>
<polygon id="0x5d4a4efe56e0" class="l95d20" points="0,9.75 32.2,9.75 32.2,13.45 0,13.45"/>
<polygon id="0x5d4a4efe3a90" class="l66d20" points="6.45,13.25 5.85,13.25 5.85,26.15 4.35,26.15 4.35,13.25 3.75,13.25 3.75,9.95 4.35,9.95 4.35,1.05 5.85,1.05 5.85,9.95 6.45,9.95"/>
<polygon id="0x5d4a4efe3b00" class="l66d20" points="14.25,26.15 12.75,26.15 12.75,13.25 10.05,13.25 10.05,26.15 8.55,26.15 8.55,1.05 10.05,1.05 10.05,9.95 12.75,9.95 12.75,1.05 14.25,1.05"/>
<polygon id="0x5d4a4f6e4830" class="l66d20" points="19.05,13.25 18.45,13.25 18.45,26.15 16.95,26.15 16.95,13.25 16.35,13.25 16.35,9.95 16.95,9.95 16.95,1.05 18.45,1.05 18.45,9.95 19.05,9.95"/>
<polygon id="0x5d4a4f67e080" class="l66d20" points="27.65,11.6 27.85,11.6 27.85,26.15 26.35,26.15 26.35,13.25 21.15,13.25 21.15,9.95 26.15,9.95 26.15,1.05 27.65,1.05"/>
<polygon id="0x5d4a4f6c28c0" class="l67d20" points="8.4,10.75 13.9,10.75 13.9,12.75 8.4,12.75"/>
<polygon id="0x5d4a4efb4a80" class="l67d20" points="19.35,12.45 17.3,12.45 17.3,16.15 4.25,16.15 4.25,9.95 6.7,9.95 6.7,14.45 15.6,14.45 15.6,10.75 19.35,10.75"/>
<polygon id="0x5d4a4f6c29f0" class="l67d20" points="23.35,13.25 21.05,13.25 21.05,8.25 2.55,8.25 2.55,17.85 4.65,17.85 4.65,24.65 0.85,24.65 0.85,6.55 6.35,6.55 6.35,3.35 8.05,3.35 8.05,6.55 23.35,6.55"/>
<polygon id="0x5d4a4f091e60" class="l67d20" points="26.35,24.65 22.35,24.65 22.35,19.55 17.25,19.55 17.25,24.65 13.95,24.65 13.95,17.85 26.35,17.85"/>
<polygon id="0x5d4a4f091ed0" class="l67d20" points="31.35,24.65 28.15,24.65 28.15,15.35 25.05,15.35 25.05,4.85 17.2,4.85 17.2,3.15 26.75,3.15 26.75,13.65 31.35,13.65"/>
<polygon id="0x5d4a4f6821a0" class="l67d20" points="32.2,28.05 0,28.05 0,26.35 10.55,26.35 10.55,17.85 12.25,17.85 12.25,26.35 18.95,26.35 18.95,21.25 20.65,21.25 20.65,26.35 32.2,26.35"/>
<polygon id="0x5d4a4f6822f0" class="l67d20" points="32.2,0.85 31.35,0.85 31.35,9.2 28.45,9.2 28.45,0.85 13.05,0.85 13.05,4.75 9.75,4.75 9.75,0.85 4.65,0.85 4.65,4.75 1.35,4.75 1.35,0.85 0,0.85 0,-0.85 32.2,-0.85"/>
<polygon id="0x5d4a4efe4c70" class="l66d44" points="2.15,22.55 3.85,22.55 3.85,24.25 2.15,24.25"/>
<polygon id="0x5d4a4efe4d40" class="l66d44" points="2.15,19.15 3.85,19.15 3.85,20.85 2.15,20.85"/>
<polygon id="0x5d4a4f69f6d0" class="l66d44" points="2.15,3.05 3.85,3.05 3.85,4.75 2.15,4.75"/>
<polygon id="0x5d4a4f69f7a0" class="l66d44" points="4.25,10.75 5.95,10.75 5.95,12.45 4.25,12.45"/>
<polygon id="0x5d4a4f08fef0" class="l66d44" points="6.35,4.15 8.05,4.15 8.05,5.85 6.35,5.85"/>
<polygon id="0x5d4a4f08ffc0" class="l66d44" points="10.1,10.75 11.8,10.75 11.8,12.45 10.1,12.45"/>
<polygon id="0x5d4a4ee4cf70" class="l66d44" points="10.55,22.05 12.25,22.05 12.25,23.75 10.55,23.75"/>
<polygon id="0x5d4a4ee4d040" class="l66d44" points="10.55,18.65 12.25,18.65 12.25,20.35 10.55,20.35"/>
<polygon id="0x5d4a4f023c30" class="l66d44" points="10.55,3.05 12.25,3.05 12.25,4.75 10.55,4.75"/>
<polygon id="0x5d4a4f023d00" class="l66d44" points="14.75,22.05 16.45,22.05 16.45,23.75 14.75,23.75"/>
<polygon id="0x5d4a4efde990" class="l66d44" points="14.75,18.65 16.45,18.65 16.45,20.35 14.75,20.35"/>
<polygon id="0x5d4a4efdea60" class="l66d44" points="16.85,10.75 18.55,10.75 18.55,12.45 16.85,12.45"/>
<polygon id="0x5d4a4f6c5be0" class="l66d44" points="18.95,22.05 20.65,22.05 20.65,23.75 18.95,23.75"/>
<polygon id="0x5d4a4f6c5cb0" class="l66d44" points="18.95,3.15 20.65,3.15 20.65,4.85 18.95,4.85"/>
<polygon id="0x5d4a4efb3410" class="l66d44" points="21.65,10.75 23.35,10.75 23.35,12.45 21.65,12.45"/>
<polygon id="0x5d4a4efb3480" class="l66d44" points="24.15,22.05 25.85,22.05 25.85,23.75 24.15,23.75"/>
<polygon id="0x5d4a4efb3550" class="l66d44" points="24.15,18.65 25.85,18.65 25.85,20.35 24.15,20.35"/>
<polygon id="0x5d4a4f01b470" class="l66d44" points="23.95,3.15 25.65,3.15 25.65,4.85 23.95,4.85"/>
<polygon id="0x5d4a4f01b540" class="l66d44" points="28.35,22.15 30.05,22.15 30.05,23.85 28.35,23.85"/>
<polygon id="0x5d4a4f01b610" class="l66d44" points="28.35,18.75 30.05,18.75 30.05,20.45 28.35,20.45"/>
<polygon id="0x5d4a4f6c35b0" class="l66d44" points="28.35,15.35 30.05,15.35 30.05,17.05 28.35,17.05"/>
<polygon id="0x5d4a4f6c3680" class="l66d44" points="28.45,6.7 30.15,6.7 30.15,8.4 28.45,8.4"/>
<polygon id="0x5d4a4f6a04d0" class="l66d44" points="28.45,3.3 30.15,3.3 30.15,5 28.45,5"/>
<polygon id="0x5d4a4f6a05a0" class="l65d20" points="1.75,14.85 21.05,14.85 21.05,24.85 1.75,24.85"/>
<polygon id="0x5d4a4f6a0670" class="l65d20" points="23.75,14.85 30.85,14.85 30.85,24.85 23.75,24.85"/>
<polygon id="0x5d4a4efdf950" class="l65d20" points="1.75,2.35 30.85,2.35 30.85,8.85 1.75,8.85"/>
<polygon id="0x5d4a4efde5b0" class="l68d20" points="0,2.4 0,-2.4 32.2,-2.4 32.2,2.4"/>
<polygon id="0x5d4a4efde5b0" class="l68d20" points="0,29.6 0,24.8 32.2,24.8 32.2,29.6"/>
<text id="0x5d4a4f091c80" class="l67t5" text-anchor="middle" dominant-baseline="central" transform="translate(6.9 15.3) scale(0.1) scale(1 -1)">B</text>
<text id="0x5d4a4f091d10" class="l67t5" text-anchor="middle" dominant-baseline="central" transform="translate(29.9 15.3) scale(0.1) scale(1 -1)">X</text>
<text id="0x5d4a4efc2aa0" class="l67t5" text-anchor="middle" dominant-baseline="central" transform="translate(11.5 11.9) scale(0.1) scale(1 -1)">A</text>
<text id="0x5d4a4efc2b30" class="l64t59" text-anchor="middle" dominant-baseline="central" transform="translate(2.3 0) scale(0.1) scale(1 -1)">VNB</text>
<text id="0x5d4a4f093e10" class="l64t5" text-anchor="middle" dominant-baseline="central" transform="translate(2.3 27.2) scale(0.1) scale(1 -1)">VPB</text>
<text id="0x5d4a4f093ea0" class="l68t5" text-anchor="middle" dominant-baseline="central" transform="translate(2.3 27.2) scale(0.1) scale(1 -1)">VPWR</text>
<text id="0x5d4a4f41c9f0" class="l68t5" text-anchor="middle" dominant-baseline="central" transform="translate(2.3 0) scale(0.1) scale(1 -1)">VGND</text>
<text id="0x5d4a4efdfa20" class="l83t44" text-anchor="start" dominant-baseline="text-before-edge" transform="translate(0 0) rotate(90) scale(0.1) scale(1 -1)">xor2_1</text>
</g>
<g id="sky130_ef_sc_hd__decap_12">
<polygon id="0x5d4a4f013120" class="l236d0" points="0,0 55.2,0 55.2,27.2 0,27.2"/>
<polygon id="0x5d4a4f67db10" class="l68d16" points="1.45,-0.85 3.15,-0.85 3.15,0.85 1.45,0.85"/>
<polygon id="0x5d4a4f677c00" class="l68d16" points="1.45,26.35 3.15,26.35 3.15,28.05 1.45,28.05"/>
<polygon id="0x5d4a4f01ba10" class="l64d16" points="1.45,26.35 3.15,26.35 3.15,28.05 1.45,28.05"/>
<polygon id="0x5d4a4f7268a0" class="l122d16" points="1.45,-0.85 3.15,-0.85 3.15,0.85 1.45,0.85"/>
<polygon id="0x5d4a4efde850" class="l65d20" points="1.35,16.15 53.85,16.15 53.85,24.85 1.35,24.85"/>
<polygon id="0x5d4a4f08ae80" class="l65d20" points="1.35,2.35 53.85,2.35 53.85,7.85 1.35,7.85"/>
<polygon id="0x5d4a4f0915e0" class="l78d44" points="0,12.5 55.2,12.5 55.2,27.2 0,27.2"/>
<polygon id="0x5d4a4efe7960" class="l93d44" points="0,-1.9 55.2,-1.9 55.2,10.15 0,10.15"/>
<polygon id="0x5d4a4efe4330" class="l64d20" points="-1.9,13.05 57.1,13.05 57.1,29.1 -1.9,29.1"/>
<polygon id="0x5d4a4f677a70" class="l94d20" points="0,14.85 55.2,14.85 55.2,29.1 0,29.1"/>
<polygon id="0x5d4a4efb5300" class="l81d4" points="0,0 55.2,0 55.2,27.2 0,27.2"/>
<polygon id="0x5d4a4f67ea10" class="l67d44" points="24.45,-0.85 26.15,-0.85 26.15,0.85 24.45,0.85"/>
<polygon id="0x5d4a4f67d0a0" class="l67d44" points="29.05,26.35 30.75,26.35 30.75,28.05 29.05,28.05"/>
<polygon id="0x5d4a4f6771c0" class="l67d44" points="1.45,26.35 3.15,26.35 3.15,28.05 1.45,28.05"/>
<polygon id="0x5d4a4f679f90" class="l67d44" points="1.45,-0.85 3.15,-0.85 3.15,0.85 1.45,0.85"/>
<polygon id="0x5d4a4f432820" class="l67d44" points="6.05,26.35 7.75,26.35 7.75,28.05 6.05,28.05"/>
<polygon id="0x5d4a4f01f770" class="l67d44" points="6.05,-0.85 7.75,-0.85 7.75,0.85 6.05,0.85"/>
<polygon id="0x5d4a4f673e00" class="l67d44" points="10.65,26.35 12.35,26.35 12.35,28.05 10.65,28.05"/>
<polygon id="0x5d4a4ebdc9b0" class="l67d44" points="10.65,-0.85 12.35,-0.85 12.35,0.85 10.65,0.85"/>
<polygon id="0x5d4a4ebb8640" class="l67d44" points="15.25,26.35 16.95,26.35 16.95,28.05 15.25,28.05"/>
<polygon id="0x5d4a4f08cc20" class="l67d44" points="15.25,-0.85 16.95,-0.85 16.95,0.85 15.25,0.85"/>
<polygon id="0x5d4a4f015f40" class="l67d44" points="19.85,26.35 21.55,26.35 21.55,28.05 19.85,28.05"/>
<polygon id="0x5d4a4f677640" class="l67d44" points="19.85,-0.85 21.55,-0.85 21.55,0.85 19.85,0.85"/>
<polygon id="0x5d4a4f6763b0" class="l67d44" points="24.45,26.35 26.15,26.35 26.15,28.05 24.45,28.05"/>
<polygon id="0x5d4a4efe0280" class="l67d44" points="29.05,-0.85 30.75,-0.85 30.75,0.85 29.05,0.85"/>
<polygon id="0x5d4a4f6027b0" class="l67d44" points="33.65,26.35 35.35,26.35 35.35,28.05 33.65,28.05"/>
<polygon id="0x5d4a4f2a7f80" class="l67d44" points="33.65,-0.85 35.35,-0.85 35.35,0.85 33.65,0.85"/>
<polygon id="0x5d4a4f3f1460" class="l67d44" points="38.25,26.35 39.95,26.35 39.95,28.05 38.25,28.05"/>
<polygon id="0x5d4a4f6813b0" class="l67d44" points="38.25,-0.85 39.95,-0.85 39.95,0.85 38.25,0.85"/>
<polygon id="0x5d4a4f67d4e0" class="l67d44" points="42.85,26.35 44.55,26.35 44.55,28.05 42.85,28.05"/>
<polygon id="0x5d4a4f67d5e0" class="l67d44" points="42.85,-0.85 44.55,-0.85 44.55,0.85 42.85,0.85"/>
<polygon id="0x5d4a4f66c5c0" class="l67d44" points="47.45,26.35 49.15,26.35 49.15,28.05 47.45,28.05"/>
<polygon id="0x5d4a4f4fb1b0" class="l67d44" points="47.45,-0.85 49.15,-0.85 49.15,0.85 47.45,0.85"/>
<polygon id="0x5d4a4f6cdd50" class="l67d44" points="52.05,26.35 53.75,26.35 53.75,28.05 52.05,28.05"/>
<polygon id="0x5d4a4ec88e00" class="l67d44" points="52.05,-0.85 53.75,-0.85 53.75,0.85 52.05,0.85"/>
<polygon id="0x5d4a4efc2cf0" class="l95d20" points="0,9.25 55.2,9.25 55.2,14.75 0,14.75"/>
<polygon id="0x5d4a4f01b750" class="l66d20" points="51.25,26.15 3.95,26.15 3.95,11.25 26.45,11.25 26.45,14.85 51.25,14.85"/>
<polygon id="0x5d4a4ec3ca50" class="l66d20" points="51.25,12.75 28.55,12.75 28.55,9.15 3.95,9.15 3.95,1.05 51.25,1.05"/>
<polygon id="0x5d4a4f676780" class="l67d20" points="16.7,6.3 20.1,6.3 20.1,14.6 16.7,14.6"/>
<polygon id="0x5d4a4eaa0bb0" class="l67d20" points="0,26.35 55.2,26.35 55.2,28.05 0,28.05"/>
<polygon id="0x5d4a4f66c0a0" class="l67d20" points="0.85,22 54.3,22 54.3,26.35 0.85,26.35"/>
<polygon id="0x5d4a4e841590" class="l67d20" points="0,-0.85 55.2,-0.85 55.2,0.85 0,0.85"/>
<polygon id="0x5d4a4f6ad920" class="l67d20" points="34.9,9.5 38.4,9.5 38.4,22 34.9,22"/>
<polygon id="0x5d4a4f67be90" class="l67d20" points="0.85,0.85 54.3,0.85 54.3,6.3 0.85,6.3"/>
<polygon id="0x5d4a4f678f20" class="l66d44" points="1.75,22.55 3.45,22.55 3.45,24.25 1.75,24.25"/>
<polygon id="0x5d4a4f674a10" class="l66d44" points="51.75,22.55 53.45,22.55 53.45,24.25 51.75,24.25"/>
<polygon id="0x5d4a4ee4dc50" class="l66d44" points="51.75,3.9 53.45,3.9 53.45,5.6 51.75,5.6"/>
<polygon id="0x5d4a4ec3e8d0" class="l66d44" points="35.75,10.25 37.45,10.25 37.45,11.95 35.75,11.95"/>
<polygon id="0x5d4a4f646aa0" class="l66d44" points="1.75,3.9 3.45,3.9 3.45,5.6 1.75,5.6"/>
<polygon id="0x5d4a4f6cd9c0" class="l66d44" points="17.55,12.05 19.25,12.05 19.25,13.75 17.55,13.75"/>
<polygon id="0x5d4a4efde5b0" class="l68d20" points="0,29.6 0,24.8 55.2,24.8 55.2,29.6"/>
<polygon id="0x5d4a4efde5b0" class="l68d20" points="0,2.4 0,-2.4 55.2,-2.4 55.2,2.4"/>
<text id="0x5d4a4f091720" class="l68t5" text-anchor="middle" dominant-baseline="central" transform="translate(2.3 0) scale(0.1) scale(1 -1)">VGND</text>
<text id="0x5d4a4f6a8510" class="l68t5" text-anchor="middle" dominant-baseline="central" transform="translate(2.3 27.2) scale(0.1) scale(1 -1)">VPWR</text>
<text id="0x5d4a4f01fb30" class="l64t5" text-anchor="middle" dominant-baseline="central" transform="translate(2.3 27.2) scale(0.1) scale(1 -1)">VPB</text>
<text id="0x5d4a4efe86c0" class="l64t59" text-anchor="middle" dominant-baseline="central" transform="translate(2.3 0) scale(0.1) scale(1 -1)">VNB</text>
<text id="0x5d4a4f298f20" class="l83t44" text-anchor="start" dominant-baseline="text-before-edge" transform="translate(0 0) rotate(90) scale(0.1) scale(1 -1)">decap_12</text>
</g>
<g id="sky130_fd_sc_hd__fill_2">
<polygon id="0x5d4a4efb3680" class="l122d16" points="1.55,-0.5 3.15,-0.5 3.15,0.6 1.55,0.6"/>
<polygon id="0x5d4a4efb3750" class="l64d16" points="1.4,26.75 3.1,26.75 3.1,27.65 1.4,27.65"/>
<polygon id="0x5d4a4efb3820" class="l68d16" points="1,-0.7 3.65,-0.7 3.65,0.9 1,0.9"/>
<polygon id="0x5d4a4efb6400" class="l68d16" points="1.05,26.5 3.65,26.5 3.65,28.05 1.05,28.05"/>
<polygon id="0x5d4a4efb65f0" class="l78d44" points="0,12.5 9.2,12.5 9.2,27.2 0,27.2"/>
<polygon id="0x5d4a4f67cde0" class="l93d44" points="0,-1.9 9.2,-1.9 9.2,10.15 0,10.15"/>
<polygon id="0x5d4a4f67ceb0" class="l64d20" points="-1.9,13.05 11.1,13.05 11.1,29.1 -1.9,29.1"/>
<polygon id="0x5d4a4f67cf80" class="l94d20" points="0,13.55 9.2,13.55 9.2,29.1 0,29.1"/>
<polygon id="0x5d4a4efe2f90" class="l81d4" points="0,0 9.2,0 9.2,27.2 0,27.2"/>
<polygon id="0x5d4a4f6a8880" class="l67d44" points="1.45,26.35 3.15,26.35 3.15,28.05 1.45,28.05"/>
<polygon id="0x5d4a4f6a8950" class="l67d44" points="1.45,-0.85 3.15,-0.85 3.15,0.85 1.45,0.85"/>
<polygon id="0x5d4a4f6c4890" class="l67d44" points="6.05,-0.85 7.75,-0.85 7.75,0.85 6.05,0.85"/>
<polygon id="0x5d4a4f6c4960" class="l67d44" points="6.05,26.35 7.75,26.35 7.75,28.05 6.05,28.05"/>
<polygon id="0x5d4a4efde5b0" class="l67d20" points="0,0.85 0,-0.85 9.2,-0.85 9.2,0.85"/>
<polygon id="0x5d4a4efde5b0" class="l67d20" points="0,28.05 0,26.35 9.2,26.35 9.2,28.05"/>
<polygon id="0x5d4a4efde5b0" class="l68d20" points="0,29.6 0,24.8 9.2,24.8 9.2,29.6"/>
<polygon id="0x5d4a4efde5b0" class="l68d20" points="0,2.4 0,-2.4 9.2,-2.4 9.2,2.4"/>
<text id="0x5d4a4efb64d0" class="l68t5" text-anchor="middle" dominant-baseline="central" transform="translate(2.3 0) scale(0.1) scale(1 -1)">VGND</text>
<text id="0x5d4a4efb6560" class="l68t5" text-anchor="middle" dominant-baseline="central" transform="translate(2.3 27.2) scale(0.1) scale(1 -1)">VPWR</text>
<text id="0x5d4a4f6c4a30" class="l64t5" text-anchor="middle" dominant-baseline="central" transform="translate(2.3 27.2) scale(0.1) scale(1 -1)">VPB</text>
<text id="0x5d4a4f6c4ac0" class="l64t59" text-anchor="middle" dominant-baseline="central" transform="translate(2.3 0) scale(0.1) scale(1 -1)">VNB</text>
<text id="0x5d4a4f796000" class="l83t44" text-anchor="start" dominant-baseline="text-before-edge" transform="translate(0 0) rotate(90) scale(0.1) scale(1 -1)">fill_2</text>
</g>
<g id="sky130_fd_sc_hd__decap_6">
<polygon id="0x5d4a4f651f10" class="l236d0" points="0,0 27.6,0 27.6,27.2 0,27.2"/>
<polygon id="0x5d4a4f651f80" class="l68d16" points="1.45,26.35 3.15,26.35 3.15,28.05 1.45,28.05"/>
<polygon id="0x5d4a4f091140" class="l68d16" points="1.45,-0.85 3.15,-0.85 3.15,0.85 1.45,0.85"/>
<polygon id="0x5d4a4f091210" class="l64d16" points="1.45,26.35 3.15,26.35 3.15,28.05 1.45,28.05"/>
<polygon id="0x5d4a4f094030" class="l122d16" points="1.45,-0.85 3.15,-0.85 3.15,0.85 1.45,0.85"/>
<polygon id="0x5d4a4de1bb30" class="l65d20" points="1.35,16.15 26.25,16.15 26.25,24.85 1.35,24.85"/>
<polygon id="0x5d4a4de1bc00" class="l65d20" points="1.35,2.35 26.25,2.35 26.25,7.85 1.35,7.85"/>
<polygon id="0x5d4a4f6c5b00" class="l81d4" points="0,0 27.6,0 27.6,27.2 0,27.2"/>
<polygon id="0x5d4a4f6c5950" class="l78d44" points="0,12.5 27.6,12.5 27.6,27.2 0,27.2"/>
<polygon id="0x5d4a4f6c59c0" class="l93d44" points="0,-1.9 27.6,-1.9 27.6,10.15 0,10.15"/>
<polygon id="0x5d4a4f6a85d0" class="l64d20" points="-1.9,13.05 29.5,13.05 29.5,29.1 -1.9,29.1"/>
<polygon id="0x5d4a4f6a86a0" class="l94d20" points="0,14.85 27.6,14.85 27.6,29.1 0,29.1"/>
<polygon id="0x5d4a4efb4030" class="l67d44" points="1.45,26.35 3.15,26.35 3.15,28.05 1.45,28.05"/>
<polygon id="0x5d4a4efded30" class="l67d44" points="1.45,-0.85 3.15,-0.85 3.15,0.85 1.45,0.85"/>
<polygon id="0x5d4a4efdee00" class="l67d44" points="6.05,26.35 7.75,26.35 7.75,28.05 6.05,28.05"/>
<polygon id="0x5d4a4efdec10" class="l67d44" points="6.05,-0.85 7.75,-0.85 7.75,0.85 6.05,0.85"/>
<polygon id="0x5d4a4efe3800" class="l67d44" points="10.65,26.35 12.35,26.35 12.35,28.05 10.65,28.05"/>
<polygon id="0x5d4a4efe3870" class="l67d44" points="10.65,-0.85 12.35,-0.85 12.35,0.85 10.65,0.85"/>
<polygon id="0x5d4a4efe0e60" class="l67d44" points="15.25,26.35 16.95,26.35 16.95,28.05 15.25,28.05"/>
<polygon id="0x5d4a4efe0f30" class="l67d44" points="15.25,-0.85 16.95,-0.85 16.95,0.85 15.25,0.85"/>
<polygon id="0x5d4a4f091b60" class="l67d44" points="19.85,26.35 21.55,26.35 21.55,28.05 19.85,28.05"/>
<polygon id="0x5d4a4efe6d70" class="l67d44" points="19.85,-0.85 21.55,-0.85 21.55,0.85 19.85,0.85"/>
<polygon id="0x5d4a4efe6e40" class="l67d44" points="24.45,26.35 26.15,26.35 26.15,28.05 24.45,28.05"/>
<polygon id="0x5d4a4f020c90" class="l67d44" points="24.45,-0.85 26.15,-0.85 26.15,0.85 24.45,0.85"/>
<polygon id="0x5d4a4efe7f60" class="l66d20" points="23.65,26.15 3.95,26.15 3.95,11.25 12.75,11.25 12.75,14.85 23.65,14.85"/>
<polygon id="0x5d4a4efe7fd0" class="l66d20" points="23.65,12.75 14.85,12.75 14.85,9.15 3.95,9.15 3.95,1.05 23.65,1.05"/>
<polygon id="0x5d4a4efe8040" class="l67d20" points="27.6,0.85 26.75,0.85 26.75,8.55 12.95,8.55 12.95,13.75 0.85,13.75 0.85,0.85 0,0.85 0,-0.85 27.6,-0.85"/>
<polygon id="0x5d4a4efe8150" class="l67d20" points="27.6,28.05 0,28.05 0,26.35 0.85,26.35 0.85,15.45 14.65,15.45 14.65,10.25 26.75,10.25 26.75,26.35 27.6,26.35"/>
<polygon id="0x5d4a4efe7ea0" class="l95d20" points="27.6,13.45 12.95,13.45 12.95,14.75 0,14.75 0,9.75 14.65,9.75 14.65,9.25 27.6,9.25"/>
<polygon id="0x5d4a4f6c2af0" class="l66d44" points="1.75,22.55 3.45,22.55 3.45,24.25 1.75,24.25"/>
<polygon id="0x5d4a4f6c2b60" class="l66d44" points="24.15,3.9 25.85,3.9 25.85,5.6 24.15,5.6"/>
<polygon id="0x5d4a4f0207c0" class="l66d44" points="24.15,22.55 25.85,22.55 25.85,24.25 24.15,24.25"/>
<polygon id="0x5d4a4f020890" class="l66d44" points="24.15,17.45 25.85,17.45 25.85,19.15 24.15,19.15"/>
<polygon id="0x5d4a4efe6f50" class="l66d44" points="1.75,17.45 3.45,17.45 3.45,19.15 1.75,19.15"/>
<polygon id="0x5d4a4efe6780" class="l66d44" points="1.75,3.9 3.45,3.9 3.45,5.6 1.75,5.6"/>
<polygon id="0x5d4a4efe6850" class="l66d44" points="4.75,12.05 6.45,12.05 6.45,13.75 4.75,13.75"/>
<polygon id="0x5d4a4f0905d0" class="l66d44" points="10.25,12.05 11.95,12.05 11.95,13.75 10.25,13.75"/>
<polygon id="0x5d4a4f0210b0" class="l66d44" points="15.65,10.25 17.35,10.25 17.35,11.95 15.65,11.95"/>
<polygon id="0x5d4a4f021180" class="l66d44" points="21.15,10.25 22.85,10.25 22.85,11.95 21.15,11.95"/>
<polygon id="0x5d4a4efde5b0" class="l68d20" points="0,29.6 0,24.8 27.6,24.8 27.6,29.6"/>
<polygon id="0x5d4a4efde5b0" class="l68d20" points="0,2.4 0,-2.4 27.6,-2.4 27.6,2.4"/>
<text id="0x5d4a4f08ef50" class="l68t5" text-anchor="middle" dominant-baseline="central" transform="translate(2.3 27.2) scale(0.1) scale(1 -1)">VPWR</text>
<text id="0x5d4a4efe6600" class="l68t5" text-anchor="middle" dominant-baseline="central" transform="translate(2.3 0) scale(0.1) scale(1 -1)">VGND</text>
<text id="0x5d4a4efe7280" class="l64t5" text-anchor="middle" dominant-baseline="central" transform="translate(2.3 27.2) scale(0.1) scale(1 -1)">VPB</text>
<text id="0x5d4a4f6c5a70" class="l64t59" text-anchor="middle" dominant-baseline="central" transform="translate(2.3 0) scale(0.1) scale(1 -1)">VNB</text>
<text id="0x5d4a4f6c4bf0" class="l83t44" text-anchor="start" dominant-baseline="text-before-edge" transform="translate(0 0) rotate(90) scale(0.1) scale(1 -1)">decap_6</text>
</g>
<g id="sky130_fd_sc_hd__decap_3">
<polygon id="0x5d4a4efe26e0" class="l236d0" points="0,0 13.8,0 13.8,27.2 0,27.2"/>
<polygon id="0x5d4a4efb32e0" class="l68d16" points="1.45,26.35 3.15,26.35 3.15,28.05 1.45,28.05"/>
<polygon id="0x5d4a4f67d7a0" class="l68d16" points="1.45,-0.85 3.15,-0.85 3.15,0.85 1.45,0.85"/>
<polygon id="0x5d4a4f678410" class="l64d16" points="1.45,26.35 3.15,26.35 3.15,28.05 1.45,28.05"/>
<polygon id="0x5d4a4efe6900" class="l122d16" points="1.45,-0.85 3.15,-0.85 3.15,0.85 1.45,0.85"/>
<polygon id="0x5d4a4f678cf0" class="l65d20" points="1.35,2.35 12.45,2.35 12.45,7.85 1.35,7.85"/>
<polygon id="0x5d4a4f534f90" class="l65d20" points="1.35,16.15 12.45,16.15 12.45,24.85 1.35,24.85"/>
<polygon id="0x5d4a4f4040f0" class="l78d44" points="0,12.5 13.8,12.5 13.8,27.2 0,27.2"/>
<polygon id="0x5d4a4e976030" class="l64d20" points="-1.9,13.05 15.7,13.05 15.7,29.1 -1.9,29.1"/>
<polygon id="0x5d4a4f680db0" class="l94d20" points="0,14.85 13.8,14.85 13.8,29.1 0,29.1"/>
<polygon id="0x5d4a4efb6870" class="l67d44" points="10.65,-0.85 12.35,-0.85 12.35,0.85 10.65,0.85"/>
<polygon id="0x5d4a4f5aef70" class="l67d44" points="10.65,26.35 12.35,26.35 12.35,28.05 10.65,28.05"/>
<polygon id="0x5d4a4f28ea80" class="l67d44" points="6.05,-0.85 7.75,-0.85 7.75,0.85 6.05,0.85"/>
<polygon id="0x5d4a4f0161b0" class="l67d44" points="6.05,26.35 7.75,26.35 7.75,28.05 6.05,28.05"/>
<polygon id="0x5d4a4f6788d0" class="l67d44" points="1.45,-0.85 3.15,-0.85 3.15,0.85 1.45,0.85"/>
<polygon id="0x5d4a4f40b9c0" class="l67d44" points="1.45,26.35 3.15,26.35 3.15,28.05 1.45,28.05"/>
<polygon id="0x5d4a4f3f6be0" class="l81d4" points="0,0 13.8,0 13.8,27.2 0,27.2"/>
<polygon id="0x5d4a4f67cbf0" class="l93d44" points="0,-1.9 13.8,-1.9 13.8,10.15 0,10.15"/>
<polygon id="0x5d4a4f3b51c0" class="l95d20" points="13.8,13.45 6.05,13.45 6.05,14.75 0,14.75 0,9.75 7.75,9.75 7.75,9.05 13.8,9.05"/>
<polygon id="0x5d4a4e3b5780" class="l67d20" points="13.8,28.05 0,28.05 0,26.35 0.85,26.35 0.85,15.45 7.75,15.45 7.75,10.05 12.95,10.05 12.95,26.35 13.8,26.35"/>
<polygon id="0x5d4a4efe2190" class="l67d20" points="13.8,0.85 12.95,0.85 12.95,8.35 6.05,8.35 6.05,13.75 0.85,13.75 0.85,0.85 0,0.85 0,-0.85 13.8,-0.85"/>
<polygon id="0x5d4a4f08d090" class="l66d20" points="11.25,12.55 7.95,12.55 7.95,9.15 3.95,9.15 3.95,1.05 9.85,1.05 9.85,9.25 11.25,9.25"/>
<polygon id="0x5d4a4f6e4dd0" class="l66d20" points="9.85,26.15 3.95,26.15 3.95,14.55 2.55,14.55 2.55,11.25 5.85,11.25 5.85,14.65 9.85,14.65"/>
<polygon id="0x5d4a4f0264e0" class="l66d44" points="10.35,4 12.05,4 12.05,5.7 10.35,5.7"/>
<polygon id="0x5d4a4f0216a0" class="l66d44" points="10.35,17.8 12.05,17.8 12.05,19.5 10.35,19.5"/>
<polygon id="0x5d4a4f08fdc0" class="l66d44" points="10.35,22.55 12.05,22.55 12.05,24.25 10.35,24.25"/>
<polygon id="0x5d4a4f6a0750" class="l66d44" points="8.75,10.05 10.45,10.05 10.45,11.75 8.75,11.75"/>
<polygon id="0x5d4a4e773580" class="l66d44" points="3.35,12.05 5.05,12.05 5.05,13.75 3.35,13.75"/>
<polygon id="0x5d4a4f08eab0" class="l66d44" points="1.75,4 3.45,4 3.45,5.7 1.75,5.7"/>
<polygon id="0x5d4a4f309cc0" class="l66d44" points="1.75,17.8 3.45,17.8 3.45,19.5 1.75,19.5"/>
<polygon id="0x5d4a4f309d30" class="l66d44" points="1.75,22.55 3.45,22.55 3.45,24.25 1.75,24.25"/>
<polygon id="0x5d4a4efde5b0" class="l68d20" points="0,29.6 0,24.8 13.8,24.8 13.8,29.6"/>
<polygon id="0x5d4a4efde5b0" class="l68d20" points="0,2.4 0,-2.4 13.8,-2.4 13.8,2.4"/>
<text id="0x5d4a4f44aa60" class="l68t5" text-anchor="middle" dominant-baseline="central" transform="translate(2.3 27.2) scale(0.1) scale(1 -1)">VPWR</text>
<text id="0x5d4a4f40c680" class="l68t5" text-anchor="middle" dominant-baseline="central" transform="translate(2.3 0) scale(0.1) scale(1 -1)">VGND</text>
<text id="0x5d4a4f092d10" class="l64t5" text-anchor="middle" dominant-baseline="central" transform="translate(2.3 27.2) scale(0.1) scale(1 -1)">VPB</text>
<text id="0x5d4a4f090db0" class="l64t59" text-anchor="middle" dominant-baseline="central" transform="translate(2.3 0) scale(0.1) scale(1 -1)">VNB</text>
<text id="0x5d4a4f015710" class="l83t44" text-anchor="start" dominant-baseline="text-before-edge" transform="translate(0 0) rotate(90) scale(0.1) scale(1 -1)">decap_3</text>
</g>
<g id="sky130_fd_sc_hd__clkbuf_4">
<polygon id="0x5d4a4f6a9350" class="l236d0" points="0,0 27.6,0 27.6,27.2 0,27.2"/>
<polygon id="0x5d4a4efe35e0" class="l68d16" points="1.45,-0.85 3.15,-0.85 3.15,0.85 1.45,0.85"/>
<polygon id="0x5d4a4efdf800" class="l68d16" points="1.45,26.35 3.15,26.35 3.15,28.05 1.45,28.05"/>
<polygon id="0x5d4a4efe1080" class="l64d16" points="1.45,26.35 3.15,26.35 3.15,28.05 1.45,28.05"/>
<polygon id="0x5d4a4efe1150" class="l122d16" points="1.45,-0.85 3.15,-0.85 3.15,0.85 1.45,0.85"/>
<polygon id="0x5d4a4f5c8320" class="l67d44" points="24.45,-0.85 26.15,-0.85 26.15,0.85 24.45,0.85"/>
<polygon id="0x5d4a4f5c83f0" class="l67d44" points="24.45,26.35 26.15,26.35 26.15,28.05 24.45,28.05"/>
<polygon id="0x5d4a4f5c84c0" class="l67d44" points="19.85,-0.85 21.55,-0.85 21.55,0.85 19.85,0.85"/>
<polygon id="0x5d4a4efdfef0" class="l67d44" points="19.85,26.35 21.55,26.35 21.55,28.05 19.85,28.05"/>
<polygon id="0x5d4a4f08dc00" class="l67d44" points="15.25,-0.85 16.95,-0.85 16.95,0.85 15.25,0.85"/>
<polygon id="0x5d4a4f08dcd0" class="l67d44" points="15.25,26.35 16.95,26.35 16.95,28.05 15.25,28.05"/>
<polygon id="0x5d4a4f08dda0" class="l67d44" points="10.65,-0.85 12.35,-0.85 12.35,0.85 10.65,0.85"/>
<polygon id="0x5d4a4f08de70" class="l67d44" points="10.65,26.35 12.35,26.35 12.35,28.05 10.65,28.05"/>
<polygon id="0x5d4a4f840e00" class="l67d44" points="6.05,-0.85 7.75,-0.85 7.75,0.85 6.05,0.85"/>
<polygon id="0x5d4a4f840ed0" class="l67d44" points="6.05,26.35 7.75,26.35 7.75,28.05 6.05,28.05"/>
<polygon id="0x5d4a4f840fa0" class="l67d44" points="1.45,-0.85 3.15,-0.85 3.15,0.85 1.45,0.85"/>
<polygon id="0x5d4a4f841070" class="l67d44" points="1.45,26.35 3.15,26.35 3.15,28.05 1.45,28.05"/>
<polygon id="0x5d4a4f8410e0" class="l94d20" points="0,13.55 27.6,13.55 27.6,29.1 0,29.1"/>
<polygon id="0x5d4a4f6fb8e0" class="l64d20" points="-1.9,13.05 29.5,13.05 29.5,29.1 -1.9,29.1"/>
<polygon id="0x5d4a4f6fb9b0" class="l93d44" points="0,-1.9 27.6,-1.9 27.6,10.15 0,10.15"/>
<polygon id="0x5d4a4f6fba80" class="l78d44" points="0,12.5 27.6,12.5 27.6,27.2 0,27.2"/>
<polygon id="0x5d4a4f6fbb50" class="l95d20" points="0,9.75 27.6,9.75 27.6,13.45 0,13.45"/>
<polygon id="0x5d4a4f0920e0" class="l81d4" points="0,0 27.6,0 27.6,27.2 0,27.2"/>
<polygon id="0x5d4a4f0921b0" class="l67d20" points="4.25,7.55 7.75,7.55 7.75,13.25 4.25,13.25"/>
<polygon id="0x5d4a4f092280" class="l67d20" points="27.6,0.85 26.15,0.85 26.15,5.65 23.35,5.65 23.35,0.85 17.3,0.85 17.3,5.65 14.75,5.65 14.75,0.85 8.3,0.85 8.3,5.65 5.55,5.65 5.55,0.85 0,0.85 0,-0.85 27.6,-0.85"/>
<polygon id="0x5d4a4f0922f0" class="l67d20" points="26.6,15.85 21.65,15.85 21.65,24.65 19.05,24.65 19.05,20.05 13.05,20.05 13.05,24.65 10.45,24.65 10.45,18.35 19.05,18.35 19.05,14.15 22.55,14.15 22.55,9.05 10.1,9.05 10.1,3.45 13.05,3.45 13.05,7.35 19.05,7.35 19.05,3.45 21.65,3.45 21.65,7.35 26.6,7.35"/>
<polygon id="0x5d4a4f092360" class="l67d20" points="20.85,12.45 11.15,12.45 11.15,16.65 3.95,16.65 3.95,24.65 0.85,24.65 0.85,2.55 3.85,2.55 3.85,5.85 2.55,5.85 2.55,14.95 9.45,14.95 9.45,10.75 20.85,10.75"/>
<polygon id="0x5d4a4f0923d0" class="l67d20" points="27.6,28.05 0,28.05 0,26.35 5.65,26.35 5.65,18.35 8.75,18.35 8.75,26.35 14.75,26.35 14.75,21.75 17.3,21.75 17.3,26.35 23.35,26.35 23.35,17.65 26.2,17.65 26.2,26.35 27.6,26.35"/>
<polygon id="0x5d4a4f092440" class="l66d44" points="15.2,3.15 16.9,3.15 16.9,4.85 15.2,4.85"/>
<polygon id="0x5d4a4f6c3ee0" class="l66d44" points="18.35,10.75 20.05,10.75 20.05,12.45 18.35,12.45"/>
<polygon id="0x5d4a4f6c3fb0" class="l66d44" points="19.45,18.75 21.15,18.75 21.15,20.45 19.45,20.45"/>
<polygon id="0x5d4a4f6c4080" class="l66d44" points="6.05,19.15 7.75,19.15 7.75,20.85 6.05,20.85"/>
<polygon id="0x5d4a4f6c4150" class="l66d44" points="19.45,15.35 21.15,15.35 21.15,17.05 19.45,17.05"/>
<polygon id="0x5d4a4f6c4220" class="l66d44" points="1.75,22.15 3.45,22.15 3.45,23.85 1.75,23.85"/>
<polygon id="0x5d4a4f6fb830" class="l66d44" points="4.25,10.75 5.95,10.75 5.95,12.45 4.25,12.45"/>
<polygon id="0x5d4a4efe5a40" class="l66d44" points="1.75,16.05 3.45,16.05 3.45,17.75 1.75,17.75"/>
<polygon id="0x5d4a4efe5b10" class="l66d44" points="1.75,3.35 3.45,3.35 3.45,5.05 1.75,5.05"/>
<polygon id="0x5d4a4f795b80" class="l66d44" points="6.05,22.55 7.75,22.55 7.75,24.25 6.05,24.25"/>
<polygon id="0x5d4a4f795c50" class="l66d44" points="23.75,18.45 25.45,18.45 25.45,20.15 23.75,20.15"/>
<polygon id="0x5d4a4f795d20" class="l66d44" points="6.05,3.15 7.75,3.15 7.75,4.85 6.05,4.85"/>
<polygon id="0x5d4a4f795df0" class="l66d44" points="10.85,20.8 12.55,20.8 12.55,22.5 10.85,22.5"/>
<polygon id="0x5d4a4f795ec0" class="l66d44" points="10.9,4.25 12.6,4.25 12.6,5.95 10.9,5.95"/>
<polygon id="0x5d4a4f019fe0" class="l66d44" points="11.55,10.75 13.25,10.75 13.25,12.45 11.55,12.45"/>
<polygon id="0x5d4a4f01a0b0" class="l66d44" points="14.95,10.75 16.65,10.75 16.65,12.45 14.95,12.45"/>
<polygon id="0x5d4a4f01a180" class="l66d44" points="15.15,22.55 16.85,22.55 16.85,24.25 15.15,24.25"/>
<polygon id="0x5d4a4f01a250" class="l66d44" points="19.45,22.15 21.15,22.15 21.15,23.85 19.45,23.85"/>
<polygon id="0x5d4a4f01a320" class="l66d44" points="19.5,4.25 21.2,4.25 21.2,5.95 19.5,5.95"/>
<polygon id="0x5d4a4f7bf170" class="l66d44" points="23.75,21.85 25.45,21.85 25.45,23.55 23.75,23.55"/>
<polygon id="0x5d4a4f7bf240" class="l66d44" points="23.8,3.15 25.5,3.15 25.5,4.85 23.8,4.85"/>
<polygon id="0x5d4a4f7bf310" class="l66d20" points="23.25,11.85 23.2,11.85 23.2,26.15 21.7,26.15 21.7,12.95 18.9,12.95 18.9,26.15 17.4,26.15 17.4,12.95 14.6,12.95 14.6,26.15 13.1,26.15 13.1,12.95 10.3,12.95 10.3,26.15 8.8,26.15 8.8,10.5 8.85,10.5 8.85,1.05 10.35,1.05 10.35,10.2 13.15,10.2 13.15,1.05 14.65,1.05 14.65,10.2 17.45,10.2 17.45,1.05 18.95,1.05 18.95,10.2 21.75,10.2 21.75,1.05 23.25,1.05"/>
<polygon id="0x5d4a4f7bf380" class="l66d20" points="6.45,13.25 5.5,13.25 5.5,26.15 4,26.15 4,13.25 3.45,13.25 3.45,9.95 4,9.95 4,1.05 5.5,1.05 5.5,9.95 6.45,9.95"/>
<polygon id="0x5d4a4f7bf4d0" class="l65d20" points="1.35,2.35 26.15,2.35 26.15,6.55 1.35,6.55"/>
<polygon id="0x5d4a4f013b70" class="l65d20" points="1.35,14.85 26.2,14.85 26.2,24.85 1.35,24.85"/>
<polygon id="0x5d4a4f013c40" class="l67d16" points="6.05,11.05 7.75,11.05 7.75,12.75 6.05,12.75"/>
<polygon id="0x5d4a4f013d10" class="l67d16" points="6.05,7.65 7.75,7.65 7.75,9.35 6.05,9.35"/>
<polygon id="0x5d4a4f013de0" class="l67d16" points="19.85,14.45 21.55,14.45 21.55,16.15 19.85,16.15"/>
<polygon id="0x5d4a4f013eb0" class="l67d16" points="24.45,11.05 26.15,11.05 26.15,12.75 24.45,12.75"/>
<polygon id="0x5d4a4f013f80" class="l67d16" points="24.45,7.65 26.15,7.65 26.15,9.35 24.45,9.35"/>
<polygon id="0x5d4a4efde5b0" class="l68d20" points="0,2.4 0,-2.4 27.6,-2.4 27.6,2.4"/>
<polygon id="0x5d4a4efde5b0" class="l68d20" points="0,29.6 0,24.8 27.6,24.8 27.6,29.6"/>
<text id="0x5d4a4efe1220" class="l67t5" text-anchor="middle" dominant-baseline="central" transform="translate(20.7 15.3) scale(0.1) scale(1 -1)">X</text>
<text id="0x5d4a4efe12b0" class="l67t5" text-anchor="middle" dominant-baseline="central" transform="translate(6.9 8.5) scale(0.1) scale(1 -1)">A</text>
<text id="0x5d4a4efe1340" class="l67t5" text-anchor="middle" dominant-baseline="central" transform="translate(25.3 8.5) scale(0.1) scale(1 -1)">X</text>
<text id="0x5d4a4efdfb80" class="l67t5" text-anchor="middle" dominant-baseline="central" transform="translate(6.9 11.9) scale(0.1) scale(1 -1)">A</text>
<text id="0x5d4a4efdfc10" class="l67t5" text-anchor="middle" dominant-baseline="central" transform="translate(25.3 11.9) scale(0.1) scale(1 -1)">X</text>
<text id="0x5d4a4efdfca0" class="l68t5" text-anchor="middle" dominant-baseline="central" transform="translate(2.3 0) scale(0.1) scale(1 -1)">VGND</text>
<text id="0x5d4a4efdfd30" class="l68t5" text-anchor="middle" dominant-baseline="central" transform="translate(2.3 27.2) scale(0.1) scale(1 -1)">VPWR</text>
<text id="0x5d4a4efb3a80" class="l64t5" text-anchor="middle" dominant-baseline="central" transform="translate(2.3 27.2) scale(0.1) scale(1 -1)">VPB</text>
<text id="0x5d4a4efb3b10" class="l64t59" text-anchor="middle" dominant-baseline="central" transform="translate(2.3 0) scale(0.1) scale(1 -1)">VNB</text>
<text id="0x5d4a4efb3c30" class="l83t44" text-anchor="start" dominant-baseline="text-before-edge" transform="translate(0 0) rotate(90) scale(0.1) scale(1 -1)">clkbuf_4</text>
</g>
<g id="sky130_fd_sc_hd__clkbuf_1">
<polygon id="0x5d4a4f7961c0" class="l236d0" points="0,0 13.8,0 13.8,27.2 0,27.2"/>
<polygon id="0x5d4a4efb5650" class="l68d16" points="10.65,-0.85 12.35,-0.85 12.35,0.85 10.65,0.85"/>
<polygon id="0x5d4a4efb5720" class="l68d16" points="10.65,26.35 12.35,26.35 12.35,28.05 10.65,28.05"/>
<polygon id="0x5d4a4efb57f0" class="l64d16" points="10.65,26.35 12.35,26.35 12.35,28.05 10.65,28.05"/>
<polygon id="0x5d4a4f021b10" class="l122d16" points="10.65,-0.85 12.35,-0.85 12.35,0.85 10.65,0.85"/>
<polygon id="0x5d4a4f021b80" class="l67d20" points="0.85,24.65 3.55,24.65 3.55,15.6 2.55,15.6 2.55,7.6 3.45,7.6 3.45,2.55 0.85,2.55"/>
<polygon id="0x5d4a4f021bf0" class="l67d20" points="0,0.85 5.25,0.85 5.25,4.65 8.55,4.65 8.55,0.85 13.8,0.85 13.8,-0.85 0,-0.85"/>
<polygon id="0x5d4a4f021d00" class="l67d20" points="4.25,13.9 5.4,13.9 5.4,17.05 10.35,17.05 10.35,24.65 12.05,24.65 12.05,15.35 7.1,15.35 7.1,8.05 12.05,8.05 12.05,2.55 10.35,2.55 10.35,6.35 5.4,6.35 5.4,10.6 4.25,10.6"/>
<polygon id="0x5d4a4f021d70" class="l67d20" points="9.45,9.85 12.75,9.85 12.75,13.55 9.45,13.55"/>
<polygon id="0x5d4a4f6c5560" class="l67d20" points="0,28.05 13.8,28.05 13.8,26.35 8.55,26.35 8.55,18.75 5.25,18.75 5.25,26.35 0,26.35"/>
<polygon id="0x5d4a4f6c5670" class="l95d20" points="0,9.75 13.8,9.75 13.8,14.1 0,14.1"/>
<polygon id="0x5d4a4f0196e0" class="l78d44" points="0,12.5 13.8,12.5 13.8,27.2 0,27.2"/>
<polygon id="0x5d4a4f0197b0" class="l93d44" points="0,-1.9 13.8,-1.9 13.8,10.15 0,10.15"/>
<polygon id="0x5d4a4f019880" class="l64d20" points="-1.9,13.05 15.7,13.05 15.7,29.1 -1.9,29.1"/>
<polygon id="0x5d4a4f019b50" class="l94d20" points="0,14.2 13.8,14.2 13.8,29.1 0,29.1"/>
<polygon id="0x5d4a4f019bc0" class="l81d4" points="0,0 13.8,0 13.8,27.2 0,27.2"/>
<polygon id="0x5d4a4f019c90" class="l67d44" points="1.45,-0.85 3.15,-0.85 3.15,0.85 1.45,0.85"/>
<polygon id="0x5d4a4f0213a0" class="l67d44" points="1.45,26.35 3.15,26.35 3.15,28.05 1.45,28.05"/>
<polygon id="0x5d4a4f021470" class="l67d44" points="6.05,-0.85 7.75,-0.85 7.75,0.85 6.05,0.85"/>
<polygon id="0x5d4a4f021540" class="l67d44" points="6.05,26.35 7.75,26.35 7.75,28.05 6.05,28.05"/>
<polygon id="0x5d4a4f021610" class="l67d44" points="10.65,-0.85 12.35,-0.85 12.35,0.85 10.65,0.85"/>
<polygon id="0x5d4a4f6bb5b0" class="l67d44" points="10.65,26.35 12.35,26.35 12.35,28.05 10.65,28.05"/>
<polygon id="0x5d4a4f6bb680" class="l67d16" points="1.45,4.25 3.15,4.25 3.15,5.95 1.45,5.95"/>
<polygon id="0x5d4a4f6bb750" class="l67d16" points="1.45,17.85 3.15,17.85 3.15,19.55 1.45,19.55"/>
<polygon id="0x5d4a4f671030" class="l67d16" points="1.45,21.25 3.15,21.25 3.15,22.95 1.45,22.95"/>
<polygon id="0x5d4a4f671100" class="l67d16" points="10.65,11.05 12.35,11.05 12.35,12.75 10.65,12.75"/>
<polygon id="0x5d4a4f6711d0" class="l65d20" points="1.35,2.35 12.45,2.35 12.45,7.55 1.35,7.55"/>
<polygon id="0x5d4a4f6712a0" class="l65d20" points="1.35,16.95 12.45,16.95 12.45,24.85 1.35,24.85"/>
<polygon id="0x5d4a4f6a6ab0" class="l66d44" points="1.75,4.45 3.45,4.45 3.45,6.15 1.75,6.15"/>
<polygon id="0x5d4a4f6a6b80" class="l66d44" points="1.75,18.1 3.45,18.1 3.45,19.8 1.75,19.8"/>
<polygon id="0x5d4a4f6a6c50" class="l66d44" points="1.75,22.15 3.45,22.15 3.45,23.85 1.75,23.85"/>
<polygon id="0x5d4a4f017050" class="l66d44" points="4.25,11.4 5.95,11.4 5.95,13.1 4.25,13.1"/>
<polygon id="0x5d4a4f017120" class="l66d44" points="6.05,2.95 7.75,2.95 7.75,4.65 6.05,4.65"/>
<polygon id="0x5d4a4f019d60" class="l66d44" points="6.05,18.75 7.75,18.75 7.75,20.45 6.05,20.45"/>
<polygon id="0x5d4a4efdc3b0" class="l66d44" points="6.05,22.15 7.75,22.15 7.75,23.85 6.05,23.85"/>
<polygon id="0x5d4a4efdc480" class="l66d44" points="10.25,10.75 11.95,10.75 11.95,12.45 10.25,12.45"/>
<polygon id="0x5d4a4f0171f0" class="l66d44" points="10.35,3.6 12.05,3.6 12.05,5.3 10.35,5.3"/>
<polygon id="0x5d4a4f0172c0" class="l66d44" points="10.35,18.75 12.05,18.75 12.05,20.45 10.35,20.45"/>
<polygon id="0x5d4a4efe3350" class="l66d44" points="10.35,22.15 12.05,22.15 12.05,23.85 10.35,23.85"/>
<polygon id="0x5d4a4efe3420" class="l66d20" points="3.75,13.9 3.95,13.9 3.95,26.15 5.45,26.15 5.45,13.9 6.45,13.9 6.45,10.6 5.45,10.6 5.45,1.05 3.95,1.05 3.95,10.6 3.75,10.6"/>
<polygon id="0x5d4a4efe3570" class="l66d20" points="12.45,13.25 10.15,13.25 10.15,16.2 9.85,16.2 9.85,26.15 8.35,26.15 8.35,15 8.65,15 8.65,9.5 8.35,9.5 8.35,1.05 9.85,1.05 9.85,8.3 10.15,8.3 10.15,9.95 12.45,9.95"/>
<polygon id="0x5d4a4efde5b0" class="l68d20" points="13.8,-2.4 13.8,2.4 0,2.4 0,-2.4"/>
<polygon id="0x5d4a4efde5b0" class="l68d20" points="13.8,24.8 13.8,29.6 0,29.6 0,24.8"/>
<text id="0x5d4a4efdf770" class="l68t5" text-anchor="middle" dominant-baseline="central" transform="translate(11.5 0) rotate(180) scale(1 -1) scale(0.1) scale(1 -1)">VGND</text>
<text id="0x5d4a4f017d80" class="l68t5" text-anchor="middle" dominant-baseline="central" transform="translate(11.5 27.2) rotate(180) scale(1 -1) scale(0.1) scale(1 -1)">VPWR</text>
<text id="0x5d4a4f017e10" class="l67t5" text-anchor="middle" dominant-baseline="central" transform="translate(2.3 5.1) rotate(180) scale(1 -1) scale(0.1) scale(1 -1)">X</text>
<text id="0x5d4a4f017ea0" class="l67t5" text-anchor="middle" dominant-baseline="central" transform="translate(2.3 18.7) rotate(180) scale(1 -1) scale(0.1) scale(1 -1)">X</text>
<text id="0x5d4a4f017f30" class="l67t5" text-anchor="middle" dominant-baseline="central" transform="translate(2.3 22.1) rotate(180) scale(1 -1) scale(0.1) scale(1 -1)">X</text>
<text id="0x5d4a4f017fc0" class="l67t5" text-anchor="middle" dominant-baseline="central" transform="translate(11.5 11.9) rotate(180) scale(1 -1) scale(0.1) scale(1 -1)">A</text>
<text id="0x5d4a4f018050" class="l64t5" text-anchor="middle" dominant-baseline="central" transform="translate(11.5 27.2) rotate(180) scale(1 -1) scale(0.1) scale(1 -1)">VPB</text>
<text id="0x5d4a4f6a9100" class="l64t59" text-anchor="middle" dominant-baseline="central" transform="translate(11.5 0) rotate(180) scale(1 -1) scale(0.1) scale(1 -1)">VNB</text>
<text id="0x5d4a4f6a9190" class="l83t44" text-anchor="start" dominant-baseline="text-before-edge" transform="translate(0 0) rotate(90) scale(0.1) scale(1 -1)">clkbuf_1</text>
</g>
<g id="sky130_fd_sc_hd__fill_1">
<polygon id="0x5d4a4f20b7f0" class="l64d16" points="1.55,26.7 2.55,26.7 2.55,27.55 1.55,27.55"/>
<polygon id="0x5d4a4f20b860" class="l122d16" points="1.4,-0.55 2.6,-0.55 2.6,0.55 1.4,0.55"/>
<polygon id="0x5d4a4efebf30" class="l68d16" points="1.1,26.35 2.9,26.35 2.9,27.85 1.1,27.85"/>
<polygon id="0x5d4a4efebfa0" class="l68d16" points="1.1,-0.65 2.9,-0.65 2.9,0.8 1.1,0.8"/>
<polygon id="0x5d4a4ebd8060" class="l81d4" points="0,0 4.6,0 4.6,27.2 0,27.2"/>
<polygon id="0x5d4a4f2a08d0" class="l78d44" points="0,12.5 4.6,12.5 4.6,27.2 0,27.2"/>
<polygon id="0x5d4a4f08d3e0" class="l93d44" points="0,-1.9 4.6,-1.9 4.6,10.15 0,10.15"/>
<polygon id="0x5d4a4f090750" class="l64d20" points="-1.9,13.05 6.5,13.05 6.5,29.1 -1.9,29.1"/>
<polygon id="0x5d4a4f0194c0" class="l94d20" points="0,13.55 4.6,13.55 4.6,29.1 0,29.1"/>
<polygon id="0x5d4a4f2eb050" class="l67d44" points="1.45,26.35 3.15,26.35 3.15,28.05 1.45,28.05"/>
<polygon id="0x5d4a4f63ec20" class="l67d44" points="1.45,-0.85 3.15,-0.85 3.15,0.85 1.45,0.85"/>
<polygon id="0x5d4a4efde5b0" class="l67d20" points="0,0.85 0,-0.85 4.6,-0.85 4.6,0.85"/>
<polygon id="0x5d4a4efde5b0" class="l67d20" points="0,28.05 0,26.35 4.6,26.35 4.6,28.05"/>
<polygon id="0x5d4a4efde5b0" class="l68d20" points="0,29.6 0,24.8 4.6,24.8 4.6,29.6"/>
<polygon id="0x5d4a4efde5b0" class="l68d20" points="0,2.4 0,-2.4 4.6,-2.4 4.6,2.4"/>
<text id="0x5d4a4efb3910" class="l68t5" text-anchor="middle" dominant-baseline="central" transform="translate(2.05 27.2) scale(0.125) scale(1 -1)">VPWR</text>
<text id="0x5d4a4e9ca1b0" class="l68t5" text-anchor="middle" dominant-baseline="central" transform="translate(2.05 0) scale(0.125) scale(1 -1)">VGND</text>
<text id="0x5d4a4f33d480" class="l64t5" text-anchor="middle" dominant-baseline="central" transform="translate(2.3 27.2) scale(0.1) scale(1 -1)">VPB</text>
<text id="0x5d4a4f3e8c20" class="l64t59" text-anchor="middle" dominant-baseline="central" transform="translate(2.3 0) scale(0.1) scale(1 -1)">VNB</text>
<text id="0x5d4a4f37bb70" class="l83t44" text-anchor="start" dominant-baseline="text-before-edge" transform="translate(0 0) rotate(90) scale(0.1) scale(1 -1)">fill_1</text>
</g>
</defs>
<rect x="-28.56" y="-599.76" width="402.12" height="628.32" fill="#222222" stroke="none"/>
<g id="xor_gate" transform="scale(1 -1)">
<polygon id="0x5d4a4f6cb0d0" class="l235d4" points="0,0 345,0 345,571.2 0,571.2"/>
<polygon id="0x5d4a4f018760" class="l67d20" points="272.85,313.65 274.55,313.65 274.55,315.35 272.85,315.35"/>
<polygon id="0x5d4a4f09cc50" class="l67d20" points="263.65,303.45 265.35,303.45 265.35,305.15 263.65,305.15"/>
<polygon id="0x5d4a4f09cd20" class="l67d20" points="254.45,279.65 256.15,279.65 256.15,281.35 254.45,281.35"/>
<polygon id="0x5d4a4f09cdf0" class="l67d20" points="268.25,276.25 269.95,276.25 269.95,277.95 268.25,277.95"/>
<polygon id="0x5d4a4f09cec0" class="l67d20" points="176.25,259.25 177.95,259.25 177.95,260.95 176.25,260.95"/>
<polygon id="0x5d4a4f09cf90" class="l67d20" points="272.85,259.25 274.55,259.25 274.55,260.95 272.85,260.95"/>
<polygon id="0x5d4a4f09d060" class="l67d20" points="180.85,255.85 182.55,255.85 182.55,257.55 180.85,257.55"/>
<polygon id="0x5d4a4f09d130" class="l67d20" points="194.65,255.85 196.35,255.85 196.35,257.55 194.65,257.55"/>
<polygon id="0x5d4a4f09d290" class="l67d20" points="263.65,252.45 265.35,252.45 265.35,254.15 263.65,254.15"/>
<polygon id="0x5d4a4f094140" class="l67d44" points="272.85,313.65 274.55,313.65 274.55,315.35 272.85,315.35"/>
<polygon id="0x5d4a4f094210" class="l67d44" points="263.65,303.45 265.35,303.45 265.35,305.15 263.65,305.15"/>
<polygon id="0x5d4a4f0942e0" class="l67d44" points="254.45,279.65 256.15,279.65 256.15,281.35 254.45,281.35"/>
<polygon id="0x5d4a4f0943b0" class="l67d44" points="268.25,276.25 269.95,276.25 269.95,277.95 268.25,277.95"/>
<polygon id="0x5d4a4f094480" class="l67d44" points="176.25,259.25 177.95,259.25 177.95,260.95 176.25,260.95"/>
<polygon id="0x5d4a4f094550" class="l67d44" points="272.85,259.25 274.55,259.25 274.55,260.95 272.85,260.95"/>
<polygon id="0x5d4a4f094620" class="l67d44" points="180.85,255.85 182.55,255.85 182.55,257.55 180.85,257.55"/>
<polygon id="0x5d4a4f0947a0" class="l67d44" points="194.65,255.85 196.35,255.85 196.35,257.55 194.65,257.55"/>
<polygon id="0x5d4a4f094870" class="l67d44" points="263.65,252.45 265.35,252.45 265.35,254.15 263.65,254.15"/>
<polygon id="0x5d4a4f094940" class="l68d20" points="55.2,460 289.8,460 289.8,464.8 55.2,464.8"/>
<polygon id="0x5d4a4f094a10" class="l68d20" points="55.2,432.8 289.8,432.8 289.8,437.6 55.2,437.6"/>
<polygon id="0x5d4a4f094ae0" class="l68d20" points="55.2,405.6 289.8,405.6 289.8,410.4 55.2,410.4"/>
<polygon id="0x5d4a4f6a2430" class="l68d20" points="55.2,378.4 289.8,378.4 289.8,383.2 55.2,383.2"/>
<polygon id="0x5d4a4f6a24a0" class="l68d20" points="55.2,351.2 289.8,351.2 289.8,356 55.2,356"/>
<polygon id="0x5d4a4f6a2570" class="l68d20" points="55.2,324 289.8,324 289.8,328.8 55.2,328.8"/>
<polygon id="0x5d4a4f6a2640" class="l68d20" points="272.1,313.2 275.3,313.2 275.3,315.8 272.1,315.8"/>
<polygon id="0x5d4a4f6a2710" class="l68d20" points="262.9,303 266.1,303 266.1,305.6 262.9,305.6"/>
<polygon id="0x5d4a4f6a27e0" class="l68d20" points="55.2,296.8 289.8,296.8 289.8,301.6 55.2,301.6"/>
<polygon id="0x5d4a4f6a28b0" class="l68d20" points="253.7,279.2 256.9,279.2 256.9,281.8 253.7,281.8"/>
<polygon id="0x5d4a4f6a2980" class="l68d20" points="267.65,277.8 270.55,277.8 270.55,278.25 267.65,278.25"/>
<polygon id="0x5d4a4f6a2a50" class="l68d20" points="272.1,277.8 275.3,277.8 275.3,278.4 272.1,278.4"/>
<polygon id="0x5d4a4f6a2b20" class="l68d20" points="267.65,276.4 275.3,276.4 275.3,277.8 267.65,277.8"/>
<polygon id="0x5d4a4f6a2bf0" class="l68d20" points="267.65,275.95 270.55,275.95 270.55,276.4 267.65,276.4"/>
<polygon id="0x5d4a4f0946f0" class="l68d20" points="272.1,275.8 275.3,275.8 275.3,276.4 272.1,276.4"/>
<polygon id="0x5d4a4f6a2ed0" class="l68d20" points="55.2,269.6 289.8,269.6 289.8,274.4 55.2,274.4"/>
<polygon id="0x5d4a4f6a2fa0" class="l68d20" points="175.65,260.8 178.55,260.8 178.55,261.25 175.65,261.25"/>
<polygon id="0x5d4a4f6a3070" class="l68d20" points="262.9,260.8 266.1,260.8 266.1,261.4 262.9,261.4"/>
<polygon id="0x5d4a4f6a3140" class="l68d20" points="175.65,259.4 266.1,259.4 266.1,260.8 175.65,260.8"/>
<polygon id="0x5d4a4f6a3210" class="l68d20" points="175.65,258.95 178.55,258.95 178.55,259.4 175.65,259.4"/>
<polygon id="0x5d4a4f6a32e0" class="l68d20" points="262.9,258.8 266.1,258.8 266.1,259.4 262.9,259.4"/>
<polygon id="0x5d4a4f6a33b0" class="l68d20" points="272.1,258.8 275.3,258.8 275.3,261.4 272.1,261.4"/>
<polygon id="0x5d4a4f6a3480" class="l68d20" points="180.25,255.55 183.15,255.55 183.15,257.85 180.25,257.85"/>
<polygon id="0x5d4a4f6a3550" class="l68d20" points="194.05,257.4 196.95,257.4 196.95,257.85 194.05,257.85"/>
<polygon id="0x5d4a4f6a3620" class="l68d20" points="253.7,257.4 256.9,257.4 256.9,258 253.7,258"/>
<polygon id="0x5d4a4f6a36f0" class="l68d20" points="194.05,256 256.9,256 256.9,257.4 194.05,257.4"/>
<polygon id="0x5d4a4f6a37c0" class="l68d20" points="194.05,255.55 196.95,255.55 196.95,256 194.05,256"/>
<polygon id="0x5d4a4f6a3890" class="l68d20" points="181,254 182.4,254 182.4,255.55 181,255.55"/>
<polygon id="0x5d4a4f6a3960" class="l68d20" points="253.7,255.4 256.9,255.4 256.9,256 253.7,256"/>
<polygon id="0x5d4a4f6a3a30" class="l68d20" points="263.05,254 265.95,254 265.95,254.45 263.05,254.45"/>
<polygon id="0x5d4a4f6a3b00" class="l68d20" points="181,252.6 265.95,252.6 265.95,254 181,254"/>
<polygon id="0x5d4a4f6a3bd0" class="l68d20" points="263.05,252.15 265.95,252.15 265.95,252.6 263.05,252.6"/>
<polygon id="0x5d4a4f6a3ca0" class="l68d20" points="55.2,242.4 289.8,242.4 289.8,247.2 55.2,247.2"/>
<polygon id="0x5d4a4f6a3d70" class="l68d20" points="55.2,215.2 289.8,215.2 289.8,220 55.2,220"/>
<polygon id="0x5d4a4f7c3010" class="l68d20" points="55.2,188 289.8,188 289.8,192.8 55.2,192.8"/>
<polygon id="0x5d4a4f7c30e0" class="l68d20" points="55.2,160.8 289.8,160.8 289.8,165.6 55.2,165.6"/>
<polygon id="0x5d4a4f7c31b0" class="l68d20" points="55.2,133.6 289.8,133.6 289.8,138.4 55.2,138.4"/>
<polygon id="0x5d4a4f7c3280" class="l68d20" points="55.2,106.4 289.8,106.4 289.8,111.2 55.2,111.2"/>
<polygon id="0x5d4a4f7c3350" class="l68d44" points="98.05,461.65 99.55,461.65 99.55,463.15 98.05,463.15"/>
<polygon id="0x5d4a4f7c3420" class="l68d44" points="101.25,461.65 102.75,461.65 102.75,463.15 101.25,463.15"/>
<polygon id="0x5d4a4f7c34f0" class="l68d44" points="104.45,461.65 105.95,461.65 105.95,463.15 104.45,463.15"/>
<polygon id="0x5d4a4f7c35c0" class="l68d44" points="107.65,461.65 109.15,461.65 109.15,463.15 107.65,463.15"/>
<polygon id="0x5d4a4f7c3690" class="l68d44" points="110.85,461.65 112.35,461.65 112.35,463.15 110.85,463.15"/>
<polygon id="0x5d4a4f7c3760" class="l68d44" points="131.05,434.45 132.55,434.45 132.55,435.95 131.05,435.95"/>
<polygon id="0x5d4a4f7c3830" class="l68d44" points="134.25,434.45 135.75,434.45 135.75,435.95 134.25,435.95"/>
<polygon id="0x5d4a4f7c3900" class="l68d44" points="137.45,434.45 138.95,434.45 138.95,435.95 137.45,435.95"/>
<polygon id="0x5d4a4f6a2cc0" class="l68d44" points="140.65,434.45 142.15,434.45 142.15,435.95 140.65,435.95"/>
<polygon id="0x5d4a4f6a2d90" class="l68d44" points="143.85,434.45 145.35,434.45 145.35,435.95 143.85,435.95"/>
<polygon id="0x5d4a4f7c3d80" class="l68d44" points="98.05,407.25 99.55,407.25 99.55,408.75 98.05,408.75"/>
<polygon id="0x5d4a4f7c3e50" class="l68d44" points="101.25,407.25 102.75,407.25 102.75,408.75 101.25,408.75"/>
<polygon id="0x5d4a4f7c3f20" class="l68d44" points="104.45,407.25 105.95,407.25 105.95,408.75 104.45,408.75"/>
<polygon id="0x5d4a4f7c3ff0" class="l68d44" points="107.65,407.25 109.15,407.25 109.15,408.75 107.65,408.75"/>
<polygon id="0x5d4a4f7c40c0" class="l68d44" points="110.85,407.25 112.35,407.25 112.35,408.75 110.85,408.75"/>
<polygon id="0x5d4a4f7c4190" class="l68d44" points="131.05,380.05 132.55,380.05 132.55,381.55 131.05,381.55"/>
<polygon id="0x5d4a4f7c4260" class="l68d44" points="134.25,380.05 135.75,380.05 135.75,381.55 134.25,381.55"/>
<polygon id="0x5d4a4f7c4330" class="l68d44" points="137.45,380.05 138.95,380.05 138.95,381.55 137.45,381.55"/>
<polygon id="0x5d4a4f7c4400" class="l68d44" points="140.65,380.05 142.15,380.05 142.15,381.55 140.65,381.55"/>
<polygon id="0x5d4a4f7c44d0" class="l68d44" points="143.85,380.05 145.35,380.05 145.35,381.55 143.85,381.55"/>
<polygon id="0x5d4a4f7c45a0" class="l68d44" points="98.05,352.85 99.55,352.85 99.55,354.35 98.05,354.35"/>
<polygon id="0x5d4a4f7c4670" class="l68d44" points="101.25,352.85 102.75,352.85 102.75,354.35 101.25,354.35"/>
<polygon id="0x5d4a4f7c4740" class="l68d44" points="104.45,352.85 105.95,352.85 105.95,354.35 104.45,354.35"/>
<polygon id="0x5d4a4f7c4810" class="l68d44" points="107.65,352.85 109.15,352.85 109.15,354.35 107.65,354.35"/>
<polygon id="0x5d4a4f7c48e0" class="l68d44" points="110.85,352.85 112.35,352.85 112.35,354.35 110.85,354.35"/>
<polygon id="0x5d4a4f7c49b0" class="l68d44" points="131.05,325.65 132.55,325.65 132.55,327.15 131.05,327.15"/>
<polygon id="0x5d4a4f7c4a80" class="l68d44" points="134.25,325.65 135.75,325.65 135.75,327.15 134.25,327.15"/>
<polygon id="0x5d4a4f7c4b50" class="l68d44" points="137.45,325.65 138.95,325.65 138.95,327.15 137.45,327.15"/>
<polygon id="0x5d4a4f7c4c20" class="l68d44" points="140.65,325.65 142.15,325.65 142.15,327.15 140.65,327.15"/>
<polygon id="0x5d4a4f7c4cf0" class="l68d44" points="143.85,325.65 145.35,325.65 145.35,327.15 143.85,327.15"/>
<polygon id="0x5d4a4f7c4dc0" class="l68d44" points="272.95,313.75 274.45,313.75 274.45,315.25 272.95,315.25"/>
<polygon id="0x5d4a4f7c4e90" class="l68d44" points="263.75,303.55 265.25,303.55 265.25,305.05 263.75,305.05"/>
<polygon id="0x5d4a4f7c4f60" class="l68d44" points="98.05,298.45 99.55,298.45 99.55,299.95 98.05,299.95"/>
<polygon id="0x5d4a4f7c5030" class="l68d44" points="101.25,298.45 102.75,298.45 102.75,299.95 101.25,299.95"/>
<polygon id="0x5d4a4f7c5100" class="l68d44" points="104.45,298.45 105.95,298.45 105.95,299.95 104.45,299.95"/>
<polygon id="0x5d4a4f7c51d0" class="l68d44" points="107.65,298.45 109.15,298.45 109.15,299.95 107.65,299.95"/>
<polygon id="0x5d4a4f7c52a0" class="l68d44" points="110.85,298.45 112.35,298.45 112.35,299.95 110.85,299.95"/>
<polygon id="0x5d4a4f7c5370" class="l68d44" points="254.55,279.75 256.05,279.75 256.05,281.25 254.55,281.25"/>
<polygon id="0x5d4a4f7c5440" class="l68d44" points="272.95,276.35 274.45,276.35 274.45,277.85 272.95,277.85"/>
<polygon id="0x5d4a4f7c5510" class="l68d44" points="131.05,271.25 132.55,271.25 132.55,272.75 131.05,272.75"/>
<polygon id="0x5d4a4f7c55e0" class="l68d44" points="134.25,271.25 135.75,271.25 135.75,272.75 134.25,272.75"/>
<polygon id="0x5d4a4f7c56b0" class="l68d44" points="137.45,271.25 138.95,271.25 138.95,272.75 137.45,272.75"/>
<polygon id="0x5d4a4f7c5780" class="l68d44" points="140.65,271.25 142.15,271.25 142.15,272.75 140.65,272.75"/>
<polygon id="0x5d4a4f7c5850" class="l68d44" points="143.85,271.25 145.35,271.25 145.35,272.75 143.85,272.75"/>
<polygon id="0x5d4a4f7c5920" class="l68d44" points="263.75,259.35 265.25,259.35 265.25,260.85 263.75,260.85"/>
<polygon id="0x5d4a4f7c59f0" class="l68d44" points="272.95,259.35 274.45,259.35 274.45,260.85 272.95,260.85"/>
<polygon id="0x5d4a4f7c5ac0" class="l68d44" points="254.55,255.95 256.05,255.95 256.05,257.45 254.55,257.45"/>
<polygon id="0x5d4a4f7c5b90" class="l68d44" points="98.05,244.05 99.55,244.05 99.55,245.55 98.05,245.55"/>
<polygon id="0x5d4a4f7c5c60" class="l68d44" points="101.25,244.05 102.75,244.05 102.75,245.55 101.25,245.55"/>
<polygon id="0x5d4a4f7c5d30" class="l68d44" points="104.45,244.05 105.95,244.05 105.95,245.55 104.45,245.55"/>
<polygon id="0x5d4a4f7c5e00" class="l68d44" points="107.65,244.05 109.15,244.05 109.15,245.55 107.65,245.55"/>
<polygon id="0x5d4a4f7c5ed0" class="l68d44" points="110.85,244.05 112.35,244.05 112.35,245.55 110.85,245.55"/>
<polygon id="0x5d4a4f7c5fa0" class="l68d44" points="131.05,216.85 132.55,216.85 132.55,218.35 131.05,218.35"/>
<polygon id="0x5d4a4f7c6070" class="l68d44" points="134.25,216.85 135.75,216.85 135.75,218.35 134.25,218.35"/>
<polygon id="0x5d4a4f7c6140" class="l68d44" points="137.45,216.85 138.95,216.85 138.95,218.35 137.45,218.35"/>
<polygon id="0x5d4a4f7c6210" class="l68d44" points="140.65,216.85 142.15,216.85 142.15,218.35 140.65,218.35"/>
<polygon id="0x5d4a4f7c62e0" class="l68d44" points="143.85,216.85 145.35,216.85 145.35,218.35 143.85,218.35"/>
<polygon id="0x5d4a4f7c63b0" class="l68d44" points="98.05,189.65 99.55,189.65 99.55,191.15 98.05,191.15"/>
<polygon id="0x5d4a4f6fbc10" class="l68d44" points="101.25,189.65 102.75,189.65 102.75,191.15 101.25,191.15"/>
<polygon id="0x5d4a4f6fbce0" class="l68d44" points="104.45,189.65 105.95,189.65 105.95,191.15 104.45,191.15"/>
<polygon id="0x5d4a4f6fbdb0" class="l68d44" points="107.65,189.65 109.15,189.65 109.15,191.15 107.65,191.15"/>
<polygon id="0x5d4a4f6fbe80" class="l68d44" points="110.85,189.65 112.35,189.65 112.35,191.15 110.85,191.15"/>
<polygon id="0x5d4a4f6fbf50" class="l68d44" points="131.05,162.45 132.55,162.45 132.55,163.95 131.05,163.95"/>
<polygon id="0x5d4a4f6fc020" class="l68d44" points="134.25,162.45 135.75,162.45 135.75,163.95 134.25,163.95"/>
<polygon id="0x5d4a4f6fc0f0" class="l68d44" points="137.45,162.45 138.95,162.45 138.95,163.95 137.45,163.95"/>
<polygon id="0x5d4a4f6fc1c0" class="l68d44" points="140.65,162.45 142.15,162.45 142.15,163.95 140.65,163.95"/>
<polygon id="0x5d4a4f6fc290" class="l68d44" points="143.85,162.45 145.35,162.45 145.35,163.95 143.85,163.95"/>
<polygon id="0x5d4a4f6fc360" class="l68d44" points="98.05,135.25 99.55,135.25 99.55,136.75 98.05,136.75"/>
<polygon id="0x5d4a4f6fc430" class="l68d44" points="101.25,135.25 102.75,135.25 102.75,136.75 101.25,136.75"/>
<polygon id="0x5d4a4f6fc500" class="l68d44" points="104.45,135.25 105.95,135.25 105.95,136.75 104.45,136.75"/>
<polygon id="0x5d4a4f6fc5d0" class="l68d44" points="107.65,135.25 109.15,135.25 109.15,136.75 107.65,136.75"/>
<polygon id="0x5d4a4f6fc6a0" class="l68d44" points="110.85,135.25 112.35,135.25 112.35,136.75 110.85,136.75"/>
<polygon id="0x5d4a4f7c39d0" class="l68d44" points="131.05,108.05 132.55,108.05 132.55,109.55 131.05,109.55"/>
<polygon id="0x5d4a4f7c3aa0" class="l68d44" points="134.25,108.05 135.75,108.05 135.75,109.55 134.25,109.55"/>
<polygon id="0x5d4a4f7c3b70" class="l68d44" points="137.45,108.05 138.95,108.05 138.95,109.55 137.45,109.55"/>
<polygon id="0x5d4a4f7c3c40" class="l68d44" points="140.65,108.05 142.15,108.05 142.15,109.55 140.65,109.55"/>
<polygon id="0x5d4a4f7c3d10" class="l68d44" points="143.85,108.05 145.35,108.05 145.35,109.55 143.85,109.55"/>
<polygon id="0x5d4a4f6fcf80" class="l69d20" points="97.5,460.55 112.9,460.55 112.9,464.25 97.5,464.25"/>
<polygon id="0x5d4a4f6fd050" class="l69d20" points="130.5,433.35 145.9,433.35 145.9,437.05 130.5,437.05"/>
<polygon id="0x5d4a4f6fd120" class="l69d20" points="97.5,406.15 112.9,406.15 112.9,409.85 97.5,409.85"/>
<polygon id="0x5d4a4f6fd1f0" class="l69d20" points="130.5,378.95 145.9,378.95 145.9,382.65 130.5,382.65"/>
<polygon id="0x5d4a4f6fd2c0" class="l69d20" points="97.5,351.75 112.9,351.75 112.9,355.45 97.5,355.45"/>
<polygon id="0x5d4a4f6fd390" class="l69d20" points="130.5,324.55 145.9,324.55 145.9,328.25 130.5,328.25"/>
<polygon id="0x5d4a4f6fd460" class="l69d20" points="272.4,312.9 275,312.9 275,316.1 272.4,316.1"/>
<polygon id="0x5d4a4f6fd530" class="l69d20" points="273,311.25 274.4,311.25 274.4,312.9 273,312.9"/>
<polygon id="0x5d4a4f6fd600" class="l69d20" points="272.3,307.55 275.1,307.55 275.1,311.25 272.3,311.25"/>
<polygon id="0x5d4a4f6fd6d0" class="l69d20" points="263.2,302.7 265.8,302.7 265.8,305.9 263.2,305.9"/>
<polygon id="0x5d4a4f6fd7a0" class="l69d20" points="97.5,297.35 112.9,297.35 112.9,301.05 97.5,301.05"/>
<polygon id="0x5d4a4f6fd870" class="l69d20" points="254,278.9 256.6,278.9 256.6,282.1 254,282.1"/>
<polygon id="0x5d4a4f6fd940" class="l69d20" points="130.5,270.15 145.9,270.15 145.9,273.85 130.5,273.85"/>
<polygon id="0x5d4a4f6fda10" class="l69d20" points="254.6,258.3 256,258.3 256,278.9 254.6,278.9"/>
<polygon id="0x5d4a4f6fdae0" class="l69d20" points="263.8,261.7 265.2,261.7 265.2,302.7 263.8,302.7"/>
<polygon id="0x5d4a4f6fdbb0" class="l69d20" points="272.4,277.25 275,277.25 275,278.7 272.4,278.7"/>
<polygon id="0x5d4a4f6fdc80" class="l69d20" points="272.3,273.55 275.1,273.55 275.1,277.25 272.3,277.25"/>
<polygon id="0x5d4a4f6fdd50" class="l69d20" points="263.2,258.5 265.8,258.5 265.8,261.7 263.2,261.7"/>
<polygon id="0x5d4a4f6fde20" class="l69d20" points="272.4,258.5 275,258.5 275,261.7 272.4,261.7"/>
<polygon id="0x5d4a4f6fdef0" class="l69d20" points="254,255.1 256.6,255.1 256.6,258.3 254,258.3"/>
<polygon id="0x5d4a4f6fdfc0" class="l69d20" points="97.5,242.95 112.9,242.95 112.9,246.65 97.5,246.65"/>
<polygon id="0x5d4a4f6fe090" class="l69d20" points="273,243.25 274.4,243.25 274.4,258.5 273,258.5"/>
<polygon id="0x5d4a4f6fe160" class="l69d20" points="272.3,239.55 275.1,239.55 275.1,243.25 272.3,243.25"/>
<polygon id="0x5d4a4f6fe230" class="l69d20" points="130.5,215.75 145.9,215.75 145.9,219.45 130.5,219.45"/>
<polygon id="0x5d4a4f6fe300" class="l69d20" points="97.5,188.55 112.9,188.55 112.9,192.25 97.5,192.25"/>
<polygon id="0x5d4a4f6fe3d0" class="l69d20" points="130.5,161.35 145.9,161.35 145.9,165.05 130.5,165.05"/>
<polygon id="0x5d4a4f6fe4a0" class="l69d20" points="97.5,134.15 112.9,134.15 112.9,137.85 97.5,137.85"/>
<polygon id="0x5d4a4f6fe570" class="l69d20" points="130.5,106.95 145.9,106.95 145.9,110.65 130.5,110.65"/>
<polygon id="0x5d4a4f6fe640" class="l69d44" points="98.2,461.4 100.2,461.4 100.2,463.4 98.2,463.4"/>
<polygon id="0x5d4a4f6fe710" class="l69d44" points="102.2,461.4 104.2,461.4 104.2,463.4 102.2,463.4"/>
<polygon id="0x5d4a4f6fe7e0" class="l69d44" points="106.2,461.4 108.2,461.4 108.2,463.4 106.2,463.4"/>
<polygon id="0x5d4a4f6fe8b0" class="l69d44" points="110.2,461.4 112.2,461.4 112.2,463.4 110.2,463.4"/>
<polygon id="0x5d4a4f6fe980" class="l69d44" points="131.2,434.2 133.2,434.2 133.2,436.2 131.2,436.2"/>
<polygon id="0x5d4a4f6fea50" class="l69d44" points="135.2,434.2 137.2,434.2 137.2,436.2 135.2,436.2"/>
<polygon id="0x5d4a4f6feb20" class="l69d44" points="139.2,434.2 141.2,434.2 141.2,436.2 139.2,436.2"/>
<polygon id="0x5d4a4f6febf0" class="l69d44" points="143.2,434.2 145.2,434.2 145.2,436.2 143.2,436.2"/>
<polygon id="0x5d4a4f6fecc0" class="l69d44" points="98.2,407 100.2,407 100.2,409 98.2,409"/>
<polygon id="0x5d4a4f6fed90" class="l69d44" points="102.2,407 104.2,407 104.2,409 102.2,409"/>
<polygon id="0x5d4a4f6fee60" class="l69d44" points="106.2,407 108.2,407 108.2,409 106.2,409"/>
<polygon id="0x5d4a4f6fef30" class="l69d44" points="110.2,407 112.2,407 112.2,409 110.2,409"/>
<polygon id="0x5d4a4f6ff000" class="l69d44" points="131.2,379.8 133.2,379.8 133.2,381.8 131.2,381.8"/>
<polygon id="0x5d4a4f6ff0d0" class="l69d44" points="135.2,379.8 137.2,379.8 137.2,381.8 135.2,381.8"/>
<polygon id="0x5d4a4f6b2a00" class="l69d44" points="139.2,379.8 141.2,379.8 141.2,381.8 139.2,381.8"/>
<polygon id="0x5d4a4f6b2ad0" class="l69d44" points="143.2,379.8 145.2,379.8 145.2,381.8 143.2,381.8"/>
<polygon id="0x5d4a4f6b2ba0" class="l69d44" points="98.2,352.6 100.2,352.6 100.2,354.6 98.2,354.6"/>
<polygon id="0x5d4a4f6b2c70" class="l69d44" points="102.2,352.6 104.2,352.6 104.2,354.6 102.2,354.6"/>
<polygon id="0x5d4a4f6b2d40" class="l69d44" points="106.2,352.6 108.2,352.6 108.2,354.6 106.2,354.6"/>
<polygon id="0x5d4a4f6b2e10" class="l69d44" points="110.2,352.6 112.2,352.6 112.2,354.6 110.2,354.6"/>
<polygon id="0x5d4a4f6b2ee0" class="l69d44" points="131.2,325.4 133.2,325.4 133.2,327.4 131.2,327.4"/>
<polygon id="0x5d4a4f6b2fb0" class="l69d44" points="135.2,325.4 137.2,325.4 137.2,327.4 135.2,327.4"/>
<polygon id="0x5d4a4f6b3080" class="l69d44" points="139.2,325.4 141.2,325.4 141.2,327.4 139.2,327.4"/>
<polygon id="0x5d4a4f6b3150" class="l69d44" points="143.2,325.4 145.2,325.4 145.2,327.4 143.2,327.4"/>
<polygon id="0x5d4a4f6b3220" class="l69d44" points="272.7,308.4 274.7,308.4 274.7,310.4 272.7,310.4"/>
<polygon id="0x5d4a4f6b32f0" class="l69d44" points="98.2,298.2 100.2,298.2 100.2,300.2 98.2,300.2"/>
<polygon id="0x5d4a4f6b33c0" class="l69d44" points="102.2,298.2 104.2,298.2 104.2,300.2 102.2,300.2"/>
<polygon id="0x5d4a4f6b3490" class="l69d44" points="106.2,298.2 108.2,298.2 108.2,300.2 106.2,300.2"/>
<polygon id="0x5d4a4f6b3560" class="l69d44" points="110.2,298.2 112.2,298.2 112.2,300.2 110.2,300.2"/>
<polygon id="0x5d4a4f6b3630" class="l69d44" points="272.7,274.4 274.7,274.4 274.7,276.4 272.7,276.4"/>
<polygon id="0x5d4a4f6b3700" class="l69d44" points="131.2,271 133.2,271 133.2,273 131.2,273"/>
<polygon id="0x5d4a4f6b37d0" class="l69d44" points="135.2,271 137.2,271 137.2,273 135.2,273"/>
<polygon id="0x5d4a4f6b38a0" class="l69d44" points="139.2,271 141.2,271 141.2,273 139.2,273"/>
<polygon id="0x5d4a4f6b3970" class="l69d44" points="143.2,271 145.2,271 145.2,273 143.2,273"/>
<polygon id="0x5d4a4f6b3a40" class="l69d44" points="98.2,243.8 100.2,243.8 100.2,245.8 98.2,245.8"/>
<polygon id="0x5d4a4f6b3b10" class="l69d44" points="102.2,243.8 104.2,243.8 104.2,245.8 102.2,245.8"/>
<polygon id="0x5d4a4f6b3be0" class="l69d44" points="106.2,243.8 108.2,243.8 108.2,245.8 106.2,245.8"/>
<polygon id="0x5d4a4f6b3cb0" class="l69d44" points="110.2,243.8 112.2,243.8 112.2,245.8 110.2,245.8"/>
<polygon id="0x5d4a4f6b3d80" class="l69d44" points="272.7,240.4 274.7,240.4 274.7,242.4 272.7,242.4"/>
<polygon id="0x5d4a4f6b3e50" class="l69d44" points="131.2,216.6 133.2,216.6 133.2,218.6 131.2,218.6"/>
<polygon id="0x5d4a4f6b3f20" class="l69d44" points="135.2,216.6 137.2,216.6 137.2,218.6 135.2,218.6"/>
<polygon id="0x5d4a4f6b3ff0" class="l69d44" points="139.2,216.6 141.2,216.6 141.2,218.6 139.2,218.6"/>
<polygon id="0x5d4a4f6b40c0" class="l69d44" points="143.2,216.6 145.2,216.6 145.2,218.6 143.2,218.6"/>
<polygon id="0x5d4a4f6b4190" class="l69d44" points="98.2,189.4 100.2,189.4 100.2,191.4 98.2,191.4"/>
<polygon id="0x5d4a4f6b4260" class="l69d44" points="102.2,189.4 104.2,189.4 104.2,191.4 102.2,191.4"/>
<polygon id="0x5d4a4f6b4330" class="l69d44" points="106.2,189.4 108.2,189.4 108.2,191.4 106.2,191.4"/>
<polygon id="0x5d4a4f6b4400" class="l69d44" points="110.2,189.4 112.2,189.4 112.2,191.4 110.2,191.4"/>
<polygon id="0x5d4a4f6b44d0" class="l69d44" points="131.2,162.2 133.2,162.2 133.2,164.2 131.2,164.2"/>
<polygon id="0x5d4a4f6b45a0" class="l69d44" points="135.2,162.2 137.2,162.2 137.2,164.2 135.2,164.2"/>
<polygon id="0x5d4a4f6b4670" class="l69d44" points="139.2,162.2 141.2,162.2 141.2,164.2 139.2,164.2"/>
<polygon id="0x5d4a4f6b4740" class="l69d44" points="143.2,162.2 145.2,162.2 145.2,164.2 143.2,164.2"/>
<polygon id="0x5d4a4f6b4810" class="l69d44" points="98.2,135 100.2,135 100.2,137 98.2,137"/>
<polygon id="0x5d4a4f6b48e0" class="l69d44" points="102.2,135 104.2,135 104.2,137 102.2,137"/>
<polygon id="0x5d4a4f6b49b0" class="l69d44" points="106.2,135 108.2,135 108.2,137 106.2,137"/>
<polygon id="0x5d4a4f6b4a80" class="l69d44" points="110.2,135 112.2,135 112.2,137 110.2,137"/>
<polygon id="0x5d4a4f6b4b50" class="l69d44" points="131.2,107.8 133.2,107.8 133.2,109.8 131.2,109.8"/>
<polygon id="0x5d4a4f6b4c20" class="l69d44" points="135.2,107.8 137.2,107.8 137.2,109.8 135.2,109.8"/>
<polygon id="0x5d4a4f6b4cf0" class="l69d44" points="139.2,107.8 141.2,107.8 141.2,109.8 139.2,109.8"/>
<polygon id="0x5d4a4f6b4dc0" class="l69d44" points="143.2,107.8 145.2,107.8 145.2,109.8 143.2,109.8"/>
<polygon id="0x5d4a4f6b4e90" class="l70d20" points="97.3,460.75 113.1,460.75 113.1,464.05 97.3,464.05"/>
<polygon id="0x5d4a4f6b4f60" class="l70d20" points="130.3,433.55 146.1,433.55 146.1,436.85 130.3,436.85"/>
<polygon id="0x5d4a4f6b5030" class="l70d20" points="97.3,406.35 113.1,406.35 113.1,409.65 97.3,409.65"/>
<polygon id="0x5d4a4f6b5100" class="l70d20" points="130.3,379.15 146.1,379.15 146.1,382.45 130.3,382.45"/>
<polygon id="0x5d4a4f6b51d0" class="l70d20" points="97.3,351.95 113.1,351.95 113.1,355.25 97.3,355.25"/>
<polygon id="0x5d4a4f6b52a0" class="l70d20" points="130.3,324.75 146.1,324.75 146.1,328.05 130.3,328.05"/>
<polygon id="0x5d4a4f6b5370" class="l70d20" points="272.05,310.9 275.35,310.9 275.35,311.05 272.05,311.05"/>
<polygon id="0x5d4a4f6b5440" class="l70d20" points="305,310.9 345,310.9 345,312.4 305,312.4"/>
<polygon id="0x5d4a4f6b5510" class="l70d20" points="272.05,307.9 345,307.9 345,310.9 272.05,310.9"/>
<polygon id="0x5d4a4f6b55e0" class="l70d20" points="272.05,307.75 275.35,307.75 275.35,307.9 272.05,307.9"/>
<polygon id="0x5d4a4f6b56b0" class="l70d20" points="305,306.4 345,306.4 345,307.9 305,307.9"/>
<polygon id="0x5d4a4f6b5780" class="l70d20" points="97.3,297.55 113.1,297.55 113.1,300.85 97.3,300.85"/>
<polygon id="0x5d4a4f6b5850" class="l70d20" points="272.05,276.9 275.35,276.9 275.35,277.05 272.05,277.05"/>
<polygon id="0x5d4a4f6b5920" class="l70d20" points="305,276.9 345,276.9 345,278.4 305,278.4"/>
<polygon id="0x5d4a4f6b59f0" class="l70d20" points="272.05,273.9 345,273.9 345,276.9 272.05,276.9"/>
<polygon id="0x5d4a4f6b5ac0" class="l70d20" points="272.05,273.75 275.35,273.75 275.35,273.9 272.05,273.9"/>
<polygon id="0x5d4a4f6b5b90" class="l70d20" points="130.3,270.35 146.1,270.35 146.1,273.65 130.3,273.65"/>
<polygon id="0x5d4a4f6b5c60" class="l70d20" points="305,272.4 345,272.4 345,273.9 305,273.9"/>
<polygon id="0x5d4a4f6b5d30" class="l70d20" points="97.3,243.15 113.1,243.15 113.1,246.45 97.3,246.45"/>
<polygon id="0x5d4a4f6b5e00" class="l70d20" points="272.05,242.9 275.35,242.9 275.35,243.05 272.05,243.05"/>
<polygon id="0x5d4a4f6b5ed0" class="l70d20" points="305,242.9 345,242.9 345,244.4 305,244.4"/>
<polygon id="0x5d4a4f6b5fa0" class="l70d20" points="272.05,239.9 345,239.9 345,242.9 272.05,242.9"/>
<polygon id="0x5d4a4f6b6070" class="l70d20" points="272.05,239.75 275.35,239.75 275.35,239.9 272.05,239.9"/>
<polygon id="0x5d4a4f6b6140" class="l70d20" points="305,238.4 345,238.4 345,239.9 305,239.9"/>
<polygon id="0x5d4a4f6b6210" class="l70d20" points="130.3,215.95 146.1,215.95 146.1,219.25 130.3,219.25"/>
<polygon id="0x5d4a4f6b62e0" class="l70d20" points="97.3,188.75 113.1,188.75 113.1,192.05 97.3,192.05"/>
<polygon id="0x5d4a4f6b63b0" class="l70d20" points="130.3,161.55 146.1,161.55 146.1,164.85 130.3,164.85"/>
<polygon id="0x5d4a4f6b6480" class="l70d20" points="97.3,134.35 113.1,134.35 113.1,137.65 97.3,137.65"/>
<polygon id="0x5d4a4f70ac90" class="l70d20" points="130.3,107.15 146.1,107.15 146.1,110.45 130.3,110.45"/>
<polygon id="0x5d4a4f70ad60" class="l70d44" points="98.2,461.4 100.2,461.4 100.2,463.4 98.2,463.4"/>
<polygon id="0x5d4a4f70ae30" class="l70d44" points="102.2,461.4 104.2,461.4 104.2,463.4 102.2,463.4"/>
<polygon id="0x5d4a4f70af00" class="l70d44" points="106.2,461.4 108.2,461.4 108.2,463.4 106.2,463.4"/>
<polygon id="0x5d4a4f70afd0" class="l70d44" points="110.2,461.4 112.2,461.4 112.2,463.4 110.2,463.4"/>
<polygon id="0x5d4a4f70b0a0" class="l70d44" points="131.2,434.2 133.2,434.2 133.2,436.2 131.2,436.2"/>
<polygon id="0x5d4a4f70b170" class="l70d44" points="135.2,434.2 137.2,434.2 137.2,436.2 135.2,436.2"/>
<polygon id="0x5d4a4f70b240" class="l70d44" points="139.2,434.2 141.2,434.2 141.2,436.2 139.2,436.2"/>
<polygon id="0x5d4a4f6fc770" class="l70d44" points="143.2,434.2 145.2,434.2 145.2,436.2 143.2,436.2"/>
<polygon id="0x5d4a4f6fc840" class="l70d44" points="98.2,407 100.2,407 100.2,409 98.2,409"/>
<polygon id="0x5d4a4f6fc910" class="l70d44" points="102.2,407 104.2,407 104.2,409 102.2,409"/>
<polygon id="0x5d4a4f6fc9e0" class="l70d44" points="106.2,407 108.2,407 108.2,409 106.2,409"/>
<polygon id="0x5d4a4f6fcab0" class="l70d44" points="110.2,407 112.2,407 112.2,409 110.2,409"/>
<polygon id="0x5d4a4f6fcb80" class="l70d44" points="131.2,379.8 133.2,379.8 133.2,381.8 131.2,381.8"/>
<polygon id="0x5d4a4f6fcc50" class="l70d44" points="135.2,379.8 137.2,379.8 137.2,381.8 135.2,381.8"/>
<polygon id="0x5d4a4f6fcd20" class="l70d44" points="139.2,379.8 141.2,379.8 141.2,381.8 139.2,381.8"/>
<polygon id="0x5d4a4f6fcdf0" class="l70d44" points="143.2,379.8 145.2,379.8 145.2,381.8 143.2,381.8"/>
<polygon id="0x5d4a4f70c2c0" class="l70d44" points="98.2,352.6 100.2,352.6 100.2,354.6 98.2,354.6"/>
<polygon id="0x5d4a4f70c330" class="l70d44" points="102.2,352.6 104.2,352.6 104.2,354.6 102.2,354.6"/>
<polygon id="0x5d4a4f70c400" class="l70d44" points="106.2,352.6 108.2,352.6 108.2,354.6 106.2,354.6"/>
<polygon id="0x5d4a4f70c4d0" class="l70d44" points="110.2,352.6 112.2,352.6 112.2,354.6 110.2,354.6"/>
<polygon id="0x5d4a4f70c5a0" class="l70d44" points="131.2,325.4 133.2,325.4 133.2,327.4 131.2,327.4"/>
<polygon id="0x5d4a4f70c670" class="l70d44" points="135.2,325.4 137.2,325.4 137.2,327.4 135.2,327.4"/>
<polygon id="0x5d4a4f70c740" class="l70d44" points="139.2,325.4 141.2,325.4 141.2,327.4 139.2,327.4"/>
<polygon id="0x5d4a4f70c810" class="l70d44" points="143.2,325.4 145.2,325.4 145.2,327.4 143.2,327.4"/>
<polygon id="0x5d4a4f70c8e0" class="l70d44" points="98.2,298.2 100.2,298.2 100.2,300.2 98.2,300.2"/>
<polygon id="0x5d4a4f70c9b0" class="l70d44" points="102.2,298.2 104.2,298.2 104.2,300.2 102.2,300.2"/>
<polygon id="0x5d4a4f70ca80" class="l70d44" points="106.2,298.2 108.2,298.2 108.2,300.2 106.2,300.2"/>
<polygon id="0x5d4a4f70cb50" class="l70d44" points="110.2,298.2 112.2,298.2 112.2,300.2 110.2,300.2"/>
<polygon id="0x5d4a4f70cc20" class="l70d44" points="131.2,271 133.2,271 133.2,273 131.2,273"/>
<polygon id="0x5d4a4f70ccf0" class="l70d44" points="135.2,271 137.2,271 137.2,273 135.2,273"/>
<polygon id="0x5d4a4f70cdc0" class="l70d44" points="139.2,271 141.2,271 141.2,273 139.2,273"/>
<polygon id="0x5d4a4f70ce90" class="l70d44" points="143.2,271 145.2,271 145.2,273 143.2,273"/>
<polygon id="0x5d4a4f70cf60" class="l70d44" points="98.2,243.8 100.2,243.8 100.2,245.8 98.2,245.8"/>
<polygon id="0x5d4a4f70d030" class="l70d44" points="102.2,243.8 104.2,243.8 104.2,245.8 102.2,245.8"/>
<polygon id="0x5d4a4f70d100" class="l70d44" points="106.2,243.8 108.2,243.8 108.2,245.8 106.2,245.8"/>
<polygon id="0x5d4a4f70d1d0" class="l70d44" points="110.2,243.8 112.2,243.8 112.2,245.8 110.2,245.8"/>
<polygon id="0x5d4a4f70d2a0" class="l70d44" points="131.2,216.6 133.2,216.6 133.2,218.6 131.2,218.6"/>
<polygon id="0x5d4a4f70d370" class="l70d44" points="135.2,216.6 137.2,216.6 137.2,218.6 135.2,218.6"/>
<polygon id="0x5d4a4f70d440" class="l70d44" points="139.2,216.6 141.2,216.6 141.2,218.6 139.2,218.6"/>
<polygon id="0x5d4a4f70d510" class="l70d44" points="143.2,216.6 145.2,216.6 145.2,218.6 143.2,218.6"/>
<polygon id="0x5d4a4f70d5e0" class="l70d44" points="98.2,189.4 100.2,189.4 100.2,191.4 98.2,191.4"/>
<polygon id="0x5d4a4f70d6b0" class="l70d44" points="102.2,189.4 104.2,189.4 104.2,191.4 102.2,191.4"/>
<polygon id="0x5d4a4f70d780" class="l70d44" points="106.2,189.4 108.2,189.4 108.2,191.4 106.2,191.4"/>
<polygon id="0x5d4a4f70d850" class="l70d44" points="110.2,189.4 112.2,189.4 112.2,191.4 110.2,191.4"/>
<polygon id="0x5d4a4f70d920" class="l70d44" points="131.2,162.2 133.2,162.2 133.2,164.2 131.2,164.2"/>
<polygon id="0x5d4a4f70d9f0" class="l70d44" points="135.2,162.2 137.2,162.2 137.2,164.2 135.2,164.2"/>
<polygon id="0x5d4a4f70dac0" class="l70d44" points="139.2,162.2 141.2,162.2 141.2,164.2 139.2,164.2"/>
<polygon id="0x5d4a4f70db90" class="l70d44" points="143.2,162.2 145.2,162.2 145.2,164.2 143.2,164.2"/>
<polygon id="0x5d4a4f70dc60" class="l70d44" points="98.2,135 100.2,135 100.2,137 98.2,137"/>
<polygon id="0x5d4a4f70dd30" class="l70d44" points="102.2,135 104.2,135 104.2,137 102.2,137"/>
<polygon id="0x5d4a4f70de00" class="l70d44" points="106.2,135 108.2,135 108.2,137 106.2,137"/>
<polygon id="0x5d4a4f70ded0" class="l70d44" points="110.2,135 112.2,135 112.2,137 110.2,137"/>
<polygon id="0x5d4a4f70dfa0" class="l70d44" points="131.2,107.8 133.2,107.8 133.2,109.8 131.2,109.8"/>
<polygon id="0x5d4a4f70e070" class="l70d44" points="135.2,107.8 137.2,107.8 137.2,109.8 135.2,109.8"/>
<polygon id="0x5d4a4f70e140" class="l70d44" points="139.2,107.8 141.2,107.8 141.2,109.8 139.2,109.8"/>
<polygon id="0x5d4a4f70e210" class="l70d44" points="143.2,107.8 145.2,107.8 145.2,109.8 143.2,109.8"/>
<polygon id="0x5d4a4f70e2e0" class="l71d20" points="97.2,106.4 113.2,106.4 113.2,464.8 97.2,464.8"/>
<polygon id="0x5d4a4f70e3b0" class="l71d20" points="130.2,106.4 146.2,106.4 146.2,464.8 130.2,464.8"/>
<polygon id="0x5d4a4f70eb20" class="l71d16" points="130.2,106.4 146.2,106.4 146.2,464.8 130.2,464.8"/>
<polygon id="0x5d4a4f70eca0" class="l71d16" points="97.2,106.4 113.2,106.4 113.2,464.8 97.2,464.8"/>
<polygon id="0x5d4a4f70ee20" class="l70d16" points="305,238.4 345,238.4 345,244.4 305,244.4"/>
<polygon id="0x5d4a4f70efa0" class="l70d16" points="305,306.4 345,306.4 345,312.4 305,312.4"/>
<polygon id="0x5d4a4f70f120" class="l70d16" points="305,272.4 345,272.4 345,278.4 305,278.4"/>
<use transform="translate(69 108.8)" xlink:href="#sky130_ef_sc_hd__decap_12"/>
<use transform="translate(69 163.2) scale(1 -1)" xlink:href="#sky130_ef_sc_hd__decap_12"/>
<use transform="translate(55.2 108.8)" xlink:href="#sky130_fd_sc_hd__decap_3"/>
<use transform="translate(55.2 163.2) scale(1 -1)" xlink:href="#sky130_fd_sc_hd__decap_3"/>
<use transform="translate(124.2 108.8)" xlink:href="#sky130_ef_sc_hd__decap_12"/>
<use transform="translate(124.2 163.2) scale(1 -1)" xlink:href="#sky130_ef_sc_hd__decap_12"/>
<use transform="translate(179.4 108.8)" xlink:href="#sky130_fd_sc_hd__fill_1"/>
<use transform="translate(188.6 108.8)" xlink:href="#sky130_ef_sc_hd__decap_12"/>
<use transform="translate(179.4 163.2) scale(1 -1)" xlink:href="#sky130_ef_sc_hd__decap_12"/>
<use transform="translate(184 108.8)" xlink:href="#sky130_fd_sc_hd__tapvpwrvgnd_1"/>
<use transform="translate(243.8 108.8)" xlink:href="#sky130_fd_sc_hd__decap_6"/>
<use transform="translate(271.4 108.8)" xlink:href="#sky130_fd_sc_hd__fill_1"/>
<use transform="translate(234.6 163.2) scale(1 -1)" xlink:href="#sky130_fd_sc_hd__decap_8"/>
<use transform="translate(271.4 163.2) scale(1 -1)" xlink:href="#sky130_fd_sc_hd__fill_1"/>
<use transform="translate(289.8 108.8) rotate(180) scale(1 -1)" xlink:href="#sky130_fd_sc_hd__decap_3"/>
<use transform="translate(289.8 163.2) rotate(180)" xlink:href="#sky130_fd_sc_hd__decap_3"/>
<use transform="translate(69 163.2)" xlink:href="#sky130_ef_sc_hd__decap_12"/>
<use transform="translate(55.2 163.2)" xlink:href="#sky130_fd_sc_hd__decap_3"/>
<use transform="translate(124.2 163.2)" xlink:href="#sky130_ef_sc_hd__decap_12"/>
<use transform="translate(179.4 163.2)" xlink:href="#sky130_fd_sc_hd__fill_1"/>
<use transform="translate(188.6 163.2)" xlink:href="#sky130_ef_sc_hd__decap_12"/>
<use transform="translate(184 163.2)" xlink:href="#sky130_fd_sc_hd__tapvpwrvgnd_1"/>
<use transform="translate(243.8 163.2)" xlink:href="#sky130_fd_sc_hd__decap_6"/>
<use transform="translate(271.4 163.2)" xlink:href="#sky130_fd_sc_hd__fill_1"/>
<use transform="translate(289.8 163.2) rotate(180) scale(1 -1)" xlink:href="#sky130_fd_sc_hd__decap_3"/>
<use transform="translate(69 217.6) scale(1 -1)" xlink:href="#sky130_ef_sc_hd__decap_12"/>
<use transform="translate(55.2 217.6) scale(1 -1)" xlink:href="#sky130_fd_sc_hd__decap_3"/>
<use transform="translate(124.2 217.6) scale(1 -1)" xlink:href="#sky130_ef_sc_hd__decap_12"/>
<use transform="translate(179.4 217.6) scale(1 -1)" xlink:href="#sky130_ef_sc_hd__decap_12"/>
<use transform="translate(234.6 217.6) scale(1 -1)" xlink:href="#sky130_fd_sc_hd__decap_8"/>
<use transform="translate(271.4 217.6) scale(1 -1)" xlink:href="#sky130_fd_sc_hd__fill_1"/>
<use transform="translate(289.8 217.6) rotate(180)" xlink:href="#sky130_fd_sc_hd__decap_3"/>
<use transform="translate(69 217.6)" xlink:href="#sky130_ef_sc_hd__decap_12"/>
<use transform="translate(55.2 217.6)" xlink:href="#sky130_fd_sc_hd__decap_3"/>
<use transform="translate(124.2 217.6)" xlink:href="#sky130_ef_sc_hd__decap_12"/>
<use transform="translate(179.4 217.6)" xlink:href="#sky130_fd_sc_hd__fill_1"/>
<use transform="translate(188.6 217.6)" xlink:href="#sky130_ef_sc_hd__decap_12"/>
<use transform="translate(184 217.6)" xlink:href="#sky130_fd_sc_hd__tapvpwrvgnd_1"/>
<use transform="translate(243.8 217.6)" xlink:href="#sky130_fd_sc_hd__decap_6"/>
<use transform="translate(271.4 217.6)" xlink:href="#sky130_fd_sc_hd__fill_1"/>
<use transform="translate(289.8 217.6) rotate(180) scale(1 -1)" xlink:href="#sky130_fd_sc_hd__decap_3"/>
<use transform="translate(69 272) scale(1 -1)" xlink:href="#sky130_ef_sc_hd__decap_12"/>
<use transform="translate(55.2 272) scale(1 -1)" xlink:href="#sky130_fd_sc_hd__decap_3"/>
<use transform="translate(124.2 272) scale(1 -1)" xlink:href="#sky130_fd_sc_hd__decap_8"/>
<use transform="translate(161 272) scale(1 -1)" xlink:href="#sky130_fd_sc_hd__fill_1"/>
<use transform="translate(165.6 272) scale(1 -1)" xlink:href="#sky130_fd_sc_hd__xor2_1"/>
<use transform="translate(197.8 272) scale(1 -1)" xlink:href="#sky130_ef_sc_hd__decap_12"/>
<use transform="translate(253 272) scale(1 -1)" xlink:href="#sky130_fd_sc_hd__fill_2"/>
<use transform="translate(289.8 272) rotate(180)" xlink:href="#sky130_fd_sc_hd__decap_3"/>
<use transform="translate(262.2 272) scale(1 -1)" xlink:href="#sky130_fd_sc_hd__clkbuf_1"/>
<use transform="translate(69 272)" xlink:href="#sky130_ef_sc_hd__decap_12"/>
<use transform="translate(69 326.4) scale(1 -1)" xlink:href="#sky130_ef_sc_hd__decap_12"/>
<use transform="translate(55.2 272)" xlink:href="#sky130_fd_sc_hd__decap_3"/>
<use transform="translate(55.2 326.4) scale(1 -1)" xlink:href="#sky130_fd_sc_hd__decap_3"/>
<use transform="translate(124.2 272)" xlink:href="#sky130_ef_sc_hd__decap_12"/>
<use transform="translate(124.2 326.4) scale(1 -1)" xlink:href="#sky130_ef_sc_hd__decap_12"/>
<use transform="translate(179.4 272)" xlink:href="#sky130_fd_sc_hd__fill_1"/>
<use transform="translate(188.6 272)" xlink:href="#sky130_ef_sc_hd__decap_12"/>
<use transform="translate(179.4 326.4) scale(1 -1)" xlink:href="#sky130_ef_sc_hd__decap_12"/>
<use transform="translate(184 272)" xlink:href="#sky130_fd_sc_hd__tapvpwrvgnd_1"/>
<use transform="translate(243.8 272)" xlink:href="#sky130_fd_sc_hd__fill_1"/>
<use transform="translate(234.6 326.4) scale(1 -1)" xlink:href="#sky130_fd_sc_hd__decap_6"/>
<use transform="translate(289.8 272) rotate(180) scale(1 -1)" xlink:href="#sky130_fd_sc_hd__decap_3"/>
<use transform="translate(289.8 326.4) rotate(180)" xlink:href="#sky130_fd_sc_hd__decap_3"/>
<use transform="translate(262.2 326.4) scale(1 -1)" xlink:href="#sky130_fd_sc_hd__clkbuf_1"/>
<use transform="translate(248.4 272)" xlink:href="#sky130_fd_sc_hd__clkbuf_4"/>
<use transform="translate(69 326.4)" xlink:href="#sky130_ef_sc_hd__decap_12"/>
<use transform="translate(55.2 326.4)" xlink:href="#sky130_fd_sc_hd__decap_3"/>
<use transform="translate(124.2 326.4)" xlink:href="#sky130_ef_sc_hd__decap_12"/>
<use transform="translate(179.4 326.4)" xlink:href="#sky130_fd_sc_hd__fill_1"/>
<use transform="translate(188.6 326.4)" xlink:href="#sky130_ef_sc_hd__decap_12"/>
<use transform="translate(184 326.4)" xlink:href="#sky130_fd_sc_hd__tapvpwrvgnd_1"/>
<use transform="translate(243.8 326.4)" xlink:href="#sky130_fd_sc_hd__decap_6"/>
<use transform="translate(271.4 326.4)" xlink:href="#sky130_fd_sc_hd__fill_1"/>
<use transform="translate(289.8 326.4) rotate(180) scale(1 -1)" xlink:href="#sky130_fd_sc_hd__decap_3"/>
<use transform="translate(69 380.8) scale(1 -1)" xlink:href="#sky130_ef_sc_hd__decap_12"/>
<use transform="translate(55.2 380.8) scale(1 -1)" xlink:href="#sky130_fd_sc_hd__decap_3"/>
<use transform="translate(124.2 380.8) scale(1 -1)" xlink:href="#sky130_ef_sc_hd__decap_12"/>
<use transform="translate(179.4 380.8) scale(1 -1)" xlink:href="#sky130_ef_sc_hd__decap_12"/>
<use transform="translate(234.6 380.8) scale(1 -1)" xlink:href="#sky130_fd_sc_hd__decap_8"/>
<use transform="translate(271.4 380.8) scale(1 -1)" xlink:href="#sky130_fd_sc_hd__fill_1"/>
<use transform="translate(289.8 380.8) rotate(180)" xlink:href="#sky130_fd_sc_hd__decap_3"/>
<use transform="translate(69 380.8)" xlink:href="#sky130_ef_sc_hd__decap_12"/>
<use transform="translate(55.2 380.8)" xlink:href="#sky130_fd_sc_hd__decap_3"/>
<use transform="translate(124.2 380.8)" xlink:href="#sky130_ef_sc_hd__decap_12"/>
<use transform="translate(179.4 380.8)" xlink:href="#sky130_fd_sc_hd__fill_1"/>
<use transform="translate(188.6 380.8)" xlink:href="#sky130_ef_sc_hd__decap_12"/>
<use transform="translate(184 380.8)" xlink:href="#sky130_fd_sc_hd__tapvpwrvgnd_1"/>
<use transform="translate(243.8 380.8)" xlink:href="#sky130_fd_sc_hd__decap_6"/>
<use transform="translate(271.4 380.8)" xlink:href="#sky130_fd_sc_hd__fill_1"/>
<use transform="translate(289.8 380.8) rotate(180) scale(1 -1)" xlink:href="#sky130_fd_sc_hd__decap_3"/>
<use transform="translate(69 435.2) scale(1 -1)" xlink:href="#sky130_ef_sc_hd__decap_12"/>
<use transform="translate(55.2 435.2) scale(1 -1)" xlink:href="#sky130_fd_sc_hd__decap_3"/>
<use transform="translate(124.2 435.2) scale(1 -1)" xlink:href="#sky130_ef_sc_hd__decap_12"/>
<use transform="translate(179.4 435.2) scale(1 -1)" xlink:href="#sky130_ef_sc_hd__decap_12"/>
<use transform="translate(234.6 435.2) scale(1 -1)" xlink:href="#sky130_fd_sc_hd__decap_8"/>
<use transform="translate(271.4 435.2) scale(1 -1)" xlink:href="#sky130_fd_sc_hd__fill_1"/>
<use transform="translate(289.8 435.2) rotate(180)" xlink:href="#sky130_fd_sc_hd__decap_3"/>
<use transform="translate(69 435.2)" xlink:href="#sky130_ef_sc_hd__decap_12"/>
<use transform="translate(55.2 435.2)" xlink:href="#sky130_fd_sc_hd__decap_3"/>
<use transform="translate(124.2 435.2)" xlink:href="#sky130_ef_sc_hd__decap_12"/>
<use transform="translate(179.4 435.2)" xlink:href="#sky130_fd_sc_hd__fill_1"/>
<use transform="translate(188.6 435.2)" xlink:href="#sky130_ef_sc_hd__decap_12"/>
<use transform="translate(184 435.2)" xlink:href="#sky130_fd_sc_hd__tapvpwrvgnd_1"/>
<use transform="translate(243.8 435.2)" xlink:href="#sky130_fd_sc_hd__decap_6"/>
<use transform="translate(271.4 435.2)" xlink:href="#sky130_fd_sc_hd__fill_1"/>
<use transform="translate(289.8 435.2) rotate(180) scale(1 -1)" xlink:href="#sky130_fd_sc_hd__decap_3"/>
<text id="0x5d4a4f70e480" class="l68t5" text-anchor="start" dominant-baseline="text-before-edge" transform="translate(172.5 435.2) scale(1 -1)">VGND</text>
<text id="0x5d4a4f70e510" class="l68t5" text-anchor="start" dominant-baseline="text-before-edge" transform="translate(172.5 462.4) scale(1 -1)">VPWR</text>
<text id="0x5d4a4f70e5c0" class="l69t5" text-anchor="start" dominant-baseline="text-before-edge" transform="translate(273.7 250.75) scale(1 -1)">a</text>
<text id="0x5d4a4f70e670" class="l69t5" text-anchor="start" dominant-baseline="text-before-edge" transform="translate(273.7 311.95) scale(1 -1)">b</text>
<text id="0x5d4a4f70e720" class="l68t5" text-anchor="start" dominant-baseline="text-before-edge" transform="translate(181.7 255) scale(1 -1)">net1</text>
<text id="0x5d4a4f70e7d0" class="l68t5" text-anchor="start" dominant-baseline="text-before-edge" transform="translate(220.8 260.1) scale(1 -1)">net2</text>
<text id="0x5d4a4f70e880" class="l68t5" text-anchor="start" dominant-baseline="text-before-edge" transform="translate(225.4 256.7) scale(1 -1)">net3</text>
<text id="0x5d4a4f70e930" class="l68t5" text-anchor="start" dominant-baseline="text-before-edge" transform="translate(271.4 277.1) scale(1 -1)">out</text>
<text id="0x5d4a4f70e9e0" class="l71t5" text-anchor="middle" dominant-baseline="central" transform="translate(138.2 285.6) rotate(90) scale(1.2) scale(1 -1)">VGND</text>
<text id="0x5d4a4f70ebf0" class="l71t5" text-anchor="middle" dominant-baseline="central" transform="translate(105.2 285.6) rotate(90) scale(1.2) scale(1 -1)">VPWR</text>
<text id="0x5d4a4f70ed70" class="l70t5" text-anchor="middle" dominant-baseline="central" transform="translate(325 241.4) scale(0.3) scale(1 -1)">a</text>
<text id="0x5d4a4f70eef0" class="l70t5" text-anchor="middle" dominant-baseline="central" transform="translate(325 309.4) scale(0.3) scale(1 -1)">b</text>
<text id="0x5d4a4f70f070" class="l70t5" text-anchor="middle" dominant-baseline="central" transform="translate(325 275.4) scale(0.3) scale(1 -1)">out</text>
</g>
</svg>